<svg xmlns="http://www.w3.org/2000/svg" viewBox="0 0 400 319" preserveAspectRatio="xMidYMid meet"><path fill="#1c3423" d="M0 0h400v319H0z"/><path fill="#64ac30" d="M230 120h2l1 6 3.402 1.102c8.227 2.735 15.795 5.335 22.598 10.898l2.562 2c1.438 2 1.438 2 2.126 4.75-1.591 7.518-8.551 12.369-14.665 16.441-3.713 2.222-7.487 4.271-11.335 6.247l-2.067 1.074C231.636 170.488 229.593 171 225 171l-5-9 2.957-1.645 3.855-2.167 1.948-1.081c3.105-1.754 5.915-3.367 8.24-6.107-.666-3.153-.666-3.153-3.227-4.168-5.836-1.751-11.683-1.389-17.523.168-6.675 4.108-10.587 10.409-14.77 16.879-2.19 3.139-4.616 5.583-7.48 8.121h-2v2l-2 1c5.651.346 9.116-.318 14-3 2.895-3.399 2.141-7.761 2-12h3c1 1 1 1 1.02 3.109-.429 5.464-.849 8.965-5.02 12.891-6.194 4.129-15.664 3.489-22.922 2.715-7.661-1.779-15.555-5.367-22.078-9.715a43.4 43.4 0 0 0-12 0l-2.938 2.5c-4.826 3.94-10.063 2.901-16.062 2.5v-2a89 89 0 0 1 4.875-4.062l2.742-2.161c5.312-3.962 10.955-3.303 17.383-2.777 5.163 1.317 9.769 3.328 14.438 5.875 2.418 1.396 2.418 1.396 4.445.539 10.532-7.034 16.049-21.8 18.734-33.531 1.927-4.017 4.381-5.329 8.383-6.883 4.917-1.563 9.884-2.891 14.875-4.188q3.966-1.047 7.93-2.105l3.53-.923c2.564-.523 2.564-.523 3.665-1.784"/><path fill="#7cbf3a" d="M206 73c4.561 10.072 3.674 18.65.223 29.027-1.598 3.885-3.534 6.761-6.223 9.973-1.163-3.55-.924-6.558-.562-10.25l.308-3.266L200 96c-12.469.8-23.963 6.482-35 12l.875 1.688c3.589 7.377 4.467 14.228 3.125 22.312-2.427 4.275-5.575 7.505-9 11a223 223 0 0 0-4.062 5.188l-1.723 2.23L153 152c-5.596-.937-10.193-3.265-15.25-5.75l-2.797-1.305-2.656-1.304-2.427-1.171C128 141 128 141 127.187 138.583c-.177-2.439-.068-4.188.52-6.544l.529-2.18.576-2.234.542-2.211c.53-2.143 1.086-4.278 1.646-6.414l.504-2.059c.429-1.667.955-3.307 1.496-4.941 2.25-1.125 2.25-1.125 5-2 2.099-1.563 4.02-3.284 6-5 3.163-1.581 6.58-1.286 10.078-1.426 6.086-1.196 10.639-5.883 15.36-9.699a231 231 0 0 1 15.437-11.313l1.799-1.213C199.338 73 199.338 73 206 73"/><path fill="#7fbf3b" d="M283 78c0 2 0 2-2.25 4.312L278 85l-1.75 2.562c-2.309 2.502-3.481 3.062-6.562 4.25-3.62 1.461-5.538 2.867-7.938 5.938-12.458 15.325-39.603 23.195-58.074 27.574-3.698.934-7.163 2.205-10.676 3.676l-2.172.867c-6.605 2.756-14.29 6.41-18.828 12.133v4l1.574-1.426C183.178 136 183.178 136 187 136c-3.05 6.461-6.718 11.489-13 15v3l7 2-2 4c-5.055-.446-7.402-2.647-11-6-1.778-3.555-1.766-7.137-1-11 1.988-3.02 4.468-5.435 7-8 2.266-3.062 3.824-5.424 4.938-9.062 1.315-3.638 3.213-5.367 6.062-7.938 2.344-2.17 3.689-4.075 5-7h2c.347 5.673-.601 9.002-3 14v1l7-2v-2.938c.518-3.794 2.149-5.627 4.75-8.374 7.26-7.677 9.156-14.22 11.25-24.688l23 1c0 12.375 0 12.375-1 17.188l-.562 2.792L233 111c5.173-2.078 6.965-3.921 9.188-9 3.108-6.988 3.108-6.988 5.812-9h3l-.656 1.898-.844 2.477-.844 2.461c-.753 2.106-.753 2.106-.656 4.164 9.655-6.409 14.127-10.951 17.191-22.18L266 80l3-1 1 3 1.574-.875c6.927-3.687 6.927-3.687 11.426-3.125"/><path fill="#9bd746" d="m225 45 2.273 1.973c3.345 2.486 5.417 2.61 9.539 2.777l3.52.172L243 50v3c-3.65 2.903-5.259 4-10 4l.07 2.266.055 2.984.07 2.953c-.196 2.817-.749 4.406-2.195 6.797h-4l1 2 6 1 1 13c-15.745-.964-15.745-.964-23-2a458 458 0 0 1-.688-6.812l-.386-3.833C211 72 211 72 212.543 70.301L214 69l-1-4-14-1c2.258-4.517 2.258-4.517 6-6.25l2.125-1.016C209 56 209 56 211 56l.188-2.188c1.066-3.69 2.96-5.308 5.812-7.812 2.853-1.427 4.835-1.31 8-1"/><path fill="#dbdbcd" d="M273 213h14l2.637-.141c6.61-.237 11.963.001 17.363 4.141 2.839 4.258 2.512 8.003 2 13-1.736 4.294-3.903 5.967-8 8-3.138.341-3.138.341-6.613.293l-3.78-.029-3.919-.076-3.979-.042q-4.855-.053-9.709-.146l2-2c.37-2.227.37-2.227.414-4.789l.117-2.852.094-2.984.117-3.008q.142-3.683.258-7.367h-3z"/><path fill="#95d244" d="M297 56c-.503 4.358-3.053 6.919-6 10-2.364 1.351-4.295 1.953-7.012 2.133-7.465.765-11.409 4.401-16.876 9.123-5.529 4.62-11.258 7.457-17.946 10.069l-2.17.859-1.901.704c-2.941 1.469-2.941 1.469-8.095 6.112V74l5.117-1.207 6.758-1.605 3.359-.792C258.897 68.809 265.467 67.057 272 65l3-.938c2.172-.875 2.172-.875 2.766-3.019C279 59 279 59 281.609 57.953l3.141-.703 3.109-.734c3.11-.511 5.996-.61 9.141-.516"/><path fill="#233d25" d="M236 74h1l1 20 7-6c2.681-1.298 5.237-2.438 8-3.5 5.939-2.422 10.459-4.846 15-9.5l2 1c0 2 0 2-1 5v-2c-3.459 2.306-3.468 2.843-4.375 6.688C261.867 95.432 256.398 99.635 248 105l-2-1 5-11c-4.891 2.697-4.891 2.697-7.125 6.875l-.973 2.125-.902 2c-1.875 3.45-2.689 4.792-6 7h-3l2-22h-20v-1c13.633-1.333 13.633-1.333 20 0z"/><path fill="#213927" d="M273 213c1.708-.055 3.416-.093 5.125-.125l2.883-.07C284 213 284 213 290 215v21c-4.839 1.613-7.093 2.242-11.875 2.125l-2.93-.055L273 238l2-2c.37-2.227.37-2.227.414-4.789l.117-2.852.094-2.984.117-3.008q.142-3.683.258-7.367h-3z"/><path fill="#e0e0d2" d="M312 213h11v2l-3 1-1 9h10v-10h-3v-2h11v2h-3c.11 3.459.24 6.917.375 10.375l.094 2.984.117 2.852.095 2.634c.131 2.365.131 2.365 2.319 4.155h-11l2-2c.462-2.433.462-2.433.625-5.125L329 226h-10l.375 4.312.211 2.426c.31 2.534.31 2.534 2.414 5.262h-10l2-2c.277-2.133.277-2.133.195-4.57l-.019-2.715-.051-2.84-.027-2.863A964 964 0 0 0 314 216l-2-1z"/><path fill="#9fda48" d="m279 37 2 1-1 3.25c-1.172 3.747-1.172 3.747-1 7.75l1.793-1.242 2.395-1.633 2.355-1.617C291.268 40.995 296.367 40.114 303 41c2.654 1.082 4.626 2.349 7 4v2c-4.33 2.231-7.287 2.047-12 1l-3-2c-8.008.272-12.451 4.654-18 10-1.497 1.942-2.714 3.91-4 6h-3l1-3q.075-3.343.125-6.688c.38-6.44 1.764-9.616 6.379-14.054z"/><path fill="#d9dacc" d="M34 213h11l-1 2h-2l1 9 5-6c0 3 0 3-.684 4.93-.553 2.164-.553 2.164.899 4.14l1.723 2.055C53 232.822 53 232.822 53 235h2v2l4 1c-3.165.581-5.856.761-9 0-2.871-2.668-4.948-5.674-7-9l-1 8 2 1H34l2-2c.277-2.133.277-2.133.195-4.57l-.019-2.715-.051-2.84-.027-2.863A964 964 0 0 0 36 216l-2-1zm15 0h8v2l-2.875.938c-2.986.936-2.986.936-5.125 2.062z"/><path fill="#213b25" d="m151 108 1.312 2.438c1.519 2.947 1.519 2.947 5.188 3.374 2.164.116 4.332.188 6.5.188 1.322 2.645 1.097 4.678 1.062 7.625l-.027 3.039L165 127c-3.656-.595-6.568-1.606-9.863-3.285l-2.686-1.358-2.763-1.419-2.823-1.432A1641 1641 0 0 1 140 116v-3c3.843-3.438 5.789-5 11-5"/><path fill="#eae8db" d="M155 213c3.129-.469 3.129-.469 7 0 2.473 2.162 4.153 4.76 5.938 7.5l1.494 2.168A334 334 0 0 1 173 228l1-13h-3v-2h7v2h-2v23c-3.745-1.872-4.707-2.533-7.016-5.695l-1.601-2.168-1.633-2.262-1.68-2.285A896 896 0 0 1 160 220a899 899 0 0 0-.125 7.875l-.051 2.262c-.017 1.955.073 3.91.176 5.863l2 2h-7l2-2c.277-2.133.277-2.133.195-4.57l-.019-2.715-.051-2.84-.027-2.863A964 964 0 0 0 157 216l-2-1z"/><path fill="#dcdccf" d="M217 213h11v2h-3c.087 2.939.194 5.875.312 8.812l.069 2.526.107 2.432.08 2.237c.545 2.513 1.398 3.454 3.432 4.993 2.599.08 2.599.08 5-1 2.632-3.647 2.441-7.92 2.625-12.25l.117-2.258c.094-1.83.177-3.661.258-5.492h-3v-2h7v2h-3l.211 3.98q.084 2.604.164 5.208l.152 2.619c.145 6.279.145 6.279-1.782 8.9-2.509 2.175-4.555 3.254-7.807 3.918-3.895-.829-5.394-2.644-7.938-5.625l-1-1a57 57 0 0 1-.098-4.035l.01-2.451.026-2.576.013-2.588q.02-3.175.049-6.35h-3z"/><path fill="#e9e8db" d="M209 213c3 1.25 3 1.25 5 3v4h-2a106 106 0 0 1-4-5l-6 1c.285 3.377.624 4.669 3.215 6.949l2.723 1.739c4.984 3.234 4.984 3.234 7.062 5.312-.141 3.304-.422 5.307-2.562 7.875-3.468 1.601-6.722 1.699-10.438 1.125-3-1.5-3-1.5-5-3l1-4 1.5 2c3.603 2.883 5.97 2.302 10.5 2-.102-2.947-.102-2.947-1-6-2.233-1.228-2.233-1.228-5-2-4.105-2.131-5.689-3.031-7.125-7.5.125-3.5.125-3.5 1.563-5.938 3.508-2.139 6.61-2.212 10.562-1.562"/><path fill="#eae8db" d="M88 213c3 1.25 3 1.25 5 3v4h-2l-1.188-2c-1.777-2.426-1.777-2.426-5.5-2.25L81 216c.282 3.408.638 4.681 3.25 6.984L87 224.75l2.75 1.797L92 228c1 1 1 1 1.375 3.812C93 235 93 235 90.938 237.375 87.27 239.404 85.141 239.518 81 239c-2.938-1.5-2.938-1.5-5-3l1-4 1.5 2c3.603 2.883 5.97 2.302 10.5 2-1.358-4.5-3.16-6.212-7.062-8.75l-2.723-1.797L77 224c-1-1-1-1-1.312-4.375C76 216 76 216 77.5 214.062c3.521-1.496 6.769-1.609 10.5-1.062"/><path fill="#263c2b" d="M295 215c7 1 7 1 8.938 3.062 1.716 4.747 1.606 8.898.312 13.75-1.459 2.553-2.686 3.755-5.25 5.188h-4z"/><path fill="#dfdfd1" d="M137 214c3 1 3 1 4.119 2.902l1.037 2.465 1.16 2.684 1.184 2.824a854 854 0 0 0 2.344 5.492l1.037 2.472c1.157 2.502 1.157 2.502 4.119 5.161h-12l3-1-2-6-9-1c.508-5.966 2.386-10.638 5-16"/><path fill="#519729" d="M220 166a690 690 0 0 1 4 7.125l1.156 2.016c2.239 4.078 3.525 7.078 2.844 11.859-2 2-2 2-4.355 2.18-4.33-1.932-5.241-5.828-6.957-10.055l-1.088-2.512c-2.6-6.13-2.6-6.13-2.6-9.613 2.491-.687 4.379-1 7-1"/><path fill="#e4e3d6" d="M244 213h11v2h-2l1.094 2.773 1.406 3.602 1.406 3.586C258 228 258 228 258 230h2l.402-2.168c.586-2.774 1.33-5.435 2.16-8.144l.817-2.676L264 215h-2v-2h8v2l-3 1a91 91 0 0 0-3 7.688c-1.731 4.954-3.537 9.657-6 14.312-2.627-1.314-2.801-2.46-3.91-5.148l-1.061-2.547-1.091-2.68-1.104-2.656c-1.367-3.304-2.703-6.576-3.834-9.969h-3z"/><path fill="#498f26" d="M160.352 181.984c3.985 1.528 5.2 4.638 7.023 8.266l1.114 2.027c1.613 3.098 2.547 5.043 2.363 8.582C170 203 170 203 168 205c-1.964-.125-1.964-.125-4-1-4.383-5.564-8-13.869-8-21 2-1 2-1 4.352-1.016"/><path fill="#60a22f" d="M187 136c-3.05 6.461-6.718 11.489-13 15v3l7 2-2 4c-5.055-.446-7.402-2.647-11-6-1.203-2.405-1.101-3.95-1.062-6.625l.027-2.477L167 143h1l1 5 2-4 1 2 1.574-1.426C183.178 136 183.178 136 187 136"/><path fill="#e0e0d2" d="M273 213h11v2h-3c.11 3.459.24 6.917.375 10.375l.094 2.984.117 2.852.095 2.634c.131 2.365.131 2.365 2.319 4.155h-11l2-2c.37-2.227.37-2.227.414-4.789l.117-2.852.094-2.984.117-3.008q.142-3.683.258-7.367h-3z"/><path fill="#dfdfd1" d="M61 213h11v2h-3c.11 3.459.24 6.917.375 10.375l.094 2.984.117 2.852.095 2.634c.131 2.365.131 2.365 2.319 4.155H62l1-2c.152-1.593.249-3.191.316-4.789l.127-2.852.119-2.984.131-3.008q.16-3.683.307-7.367h-3z"/><path fill="#ebe9db" d="M312 213h11v2l-3 1a1071 1071 0 0 0-.125 9.312l-.051 2.67-.019 2.569-.032 2.364c.098 2.392.098 2.392 2.227 5.085h-10l2-2c.277-2.133.277-2.133.195-4.57l-.019-2.715-.051-2.84-.027-2.863A964 964 0 0 0 314 216l-2-1z"/><path fill="#e8e6d9" d="M107 214h3q2.258 4.934 4.5 9.875l1.301 2.84 1.23 2.715 1.143 2.507C119 234 119 234 119 236l3 1v1h-11l3-1-1.312-3.211-1.688-4.164-.867-2.117C108 222.227 108 222.227 108 220h-2z"/><path fill="#eeecdf" d="M34 213h11l-3 3c-.444 2.185-.444 2.185-.363 4.598l.002 2.677.049 2.787-.01 2.799c-.261 5.098-.261 5.098 2.322 9.139H34l2-2c.277-2.133.277-2.133.195-4.57l-.019-2.715-.051-2.84-.027-2.863A964 964 0 0 0 36 216l-2-1z"/><path fill="#233e25" d="M206 161c.791 3.67 1.299 6.177 0 9.75-3.1 3.487-6.562 5.054-11.234 5.43-1.923.007-3.846-.079-5.766-.18l1-2h2v-2c1.609-1.586 1.609-1.586 3.75-3.375 2.319-1.963 4.502-3.884 6.625-6.063C204 161 204 161 206 161"/><path fill="#e9e8db" d="M351 214h3q2.258 4.934 4.5 9.875l1.301 2.84 1.23 2.715 1.143 2.507C363 234 363 234 363 236l3 1v1h-11l3-1-.643-1.573c-.961-2.368-1.909-4.741-2.857-7.115l-1.012-2.474c-2.981-7.514-2.981-7.514-2.488-11.838"/><path fill="#4f9728" d="M165 176c2.699.54 4.889 1.388 7.438 2.5 2.943 1.239 5.43 2.025 8.562 2.5-3.277 3.67-6.715 5.693-11 8a277 277 0 0 1-3.062-4.25l-1.723-2.391C164 180 164 180 164.316 177.703z"/><path fill="#f0efe1" d="M289 214h6l-1 23h-4z"/><path fill="#b2b6a7" d="M350 217c2.051 2.051 2.641 3.27 3.625 5.938l.789 2.089C355 227 355 227 355 230h-8l-1 7 3 1h-9l1.797-1.98c2.635-3.612 3.986-7.144 5.453-11.332l.812-2.245A704 704 0 0 0 350 217"/><path fill="#b1b5a7" d="M105 220h3c3 6.625 3 6.625 3 10h-8l-1 7 3 1h-9l1.828-2.074c2.347-3.162 3.58-6.047 4.922-9.738l1.297-3.52z"/><path fill="#55982b" d="M267 161c5.568.568 5.568.568 7 2 .188 2.938.188 2.938 0 6-2 2-2 2-4.438 2.312-2.562-.312-2.562-.312-4.437-1.5C264 168 264 168 264.188 165.438 265 163 265 163 267 161"/><path fill="#34532c" d="M236 74h1l1 24-2 1c-1-3-1-3-1-10h-20v-1c13.633-1.333 13.633-1.333 20 0z"/><path fill="#71af37" d="M261.563 114.813C264 115 264 115 265 116c.187 2.936.187 2.936 0 6-.661.658-1.32 1.319-2 2-4.556-.556-4.556-.556-6-2-.188-2.439-.188-2.439 0-5 2-2 2-2 4.562-2.189"/><path fill="#488d26" d="M200.438 192.75 203 193c2 3 2 3 1.688 5.125C204 200 204 200 203 201c-2.437.188-2.437.188-5 0l-2-2c.715-5.868.715-5.868 4.438-6.25"/><path fill="#90cb42" d="M167 70c4.556.556 4.556.556 6 2 .25 2.438.25 2.438 0 5-3 2-3 2-5.125 1.688C166 78 166 78 165 77c-.188-2.438-.188-2.438 0-5z"/><path fill="#9ea596" d="M171 213h7v2h-2v23h-1v-8l-2-1 1-14h-3z"/><path fill="#a6e14b" d="M257.438 38.75 260 39c2 3 2 3 1.625 5.188L261 46c-2.375.625-2.375.625-5 1-2-2-2-2-2.187-4.562.252-3.279.358-3.353 3.625-3.688"/><path fill="#9fa595" d="M262 213h8v2l-3 1a98 98 0 0 0-3.188 8.062l-.826 2.299A697 697 0 0 0 261 232h-3v-2h2l.402-2.168c.586-2.774 1.33-5.435 2.16-8.144l.817-2.676L264 215h-2z"/><path fill="#305028" d="m216 95 14 2v7l-2 1v-7h-10l-2 6c-1-3-1-3 0-9"/><path fill="#4f9728" d="M162 182c-.25 2.375-.25 2.375-1 5-2.062 1.312-2.062 1.312-4 2l-1-6c2-1 2-1 6-1"/><path fill="#bcbfb1" d="M234 213h7v2h-3l.063 1.681c.084 2.523.136 5.045.187 7.569l.102 2.645c.099 6.521.099 6.521-2.368 9.714L234 238l-2-1 1.438-1.312c3.314-3.581 2.879-8.26 3.124-12.876l.131-2.271q.158-2.77.307-5.541h-3z"/><path fill="#2a4927" d="m208 92 1 3h2c-.585 3.666-1.578 6.505-3.375 9.75l-1.273 2.359C205 109 205 109 202 110l.867-2.074c1.243-3.21 2.26-6.445 3.258-9.738l1.07-3.52z"/><path fill="#586147" d="m94 252 5 1v6l-5 1z"/><path fill="#2f4532" d="m350 221 3 1c1.188 3.562 1.188 3.562 2 7h-7z"/><path fill="#2f4531" d="m106 221 3 1c1.188 3.562 1.188 3.562 2 7h-7z"/><path fill="#797b5e" d="m199 252 3 3 2-3h2v8h-2l-1-2h-2l-2 2z"/><path fill="#2d4330" d="M136 221h2c1.257 2.906 2 4.796 2 8h-7z"/><path fill="#b8bcae" d="M49 213h8v2l-2.875.938c-2.986.936-2.986.936-5.125 2.062zm-1 5c0 3.517-.824 4.371-3 7 0-4 0-4 1.5-5.75z"/><path fill="#bdc0b2" d="m158 217 3 1-1 2a177 177 0 0 0-.188 8l-.037 2.234c-.005 1.924.103 3.847.225 5.766l2 2h-7l2-2c.369-2.031.369-2.031.414-4.352l.117-2.578.094-2.695.117-2.719q.142-3.327.258-6.656"/><path fill="#b6baab" d="M80 213c9.046-.46 9.046-.46 13 3v4h-2l-1.188-1.938C87.23 215.124 84.775 215.419 81 215z"/><path fill="#4c8a2a" d="m246 176 5 1-1 5-5-1z"/><path fill="#79b23b" d="m154 87 5 1-1 5-5-1z"/><path fill="#73775c" d="M103 252h2l1 2 2-2v8h-5z"/><path fill="#bec1b2" d="m197 232 2 1.875c3.704 2.624 6.579 3.226 11 4.125v1c-9.046.46-9.046.46-13-3z"/><path fill="#6c7157" d="M335 252h2v3h2l1-3v8l-1-3h-2v3h-2z"/><path fill="#6c7157" d="M263 252h2v3h2l1-3v8l-1-3h-2v3h-2z"/><path fill="#727558" d="M282 252h5v8h-5zm2 1v3h2v-3z"/><path fill="#717559" d="M182 252h2v3h2l1-3v8l-1-3h-2v3h-2z"/><path fill="#737558" d="M310 252h2l2 8h-6z"/><path fill="#747658" d="M231 252h2l2 8h-6z"/><path fill="#757659" d="M157 252h2l2 8h-6z"/><path fill="#c2c4b6" d="M201 213c9.046-.46 9.046-.46 13 3v4h-2l-1.688-2.438c-2.967-3.288-4.994-3.313-9.312-3.562z"/><path fill="#488928" d="M184 194h4v5l-4 1a89 89 0 0 1-1-5z"/><path fill="#78b739" d="M270 102c2.062.438 2.062.438 4 1l-1 5h-4a99 99 0 0 1 0-5z"/><path fill="#91cc43" d="m250 59 5 1-1 4h-5z"/><path fill="#636b51" d="M249 252c1.562 1.75 1.562 1.75 3 4-.312 2.25-.312 2.25-1 4h-4c.875-6.875.875-6.875 2-8"/><path fill="#83805e" d="m220 252 3 3 2-3v8h-2l-1-2-2 2z"/><path fill="#abb0a1" d="m76 232 2.062 1.875c3.397 2.457 5.898 3.174 9.938 4.125v1c-4.905.289-8.155.262-12-3z"/><path fill="#74765a" d="m320 252 2 1c.407 2.322.744 4.657 1 7h-5c.875-5.75.875-5.75 2-8"/><path fill="#727559" d="m69 252 2 1a129 129 0 0 1 2 7h-6z"/><path fill="#7a7b5e" d="M275 252c2.565 2.565 2.54 4.477 3 8h-5c.875-6.875.875-6.875 2-8"/><path fill="#797a5d" d="M132 252c2.565 2.565 2.54 4.477 3 8h-5c.875-6.875.875-6.875 2-8"/><path fill="#76785a" d="m167 252 2 1c.407 2.322.744 4.657 1 7h-5z"/><path fill="#4c9127" d="M144 186h4v5h-5z"/><path fill="#c7c8ba" d="M131 230c.934 3.01 1.044 3.867 0 7l3 1h-9l1.875-1.75c1.938-2.052 3.025-3.684 4.125-6.25"/><path fill="#69b032" d="M275 136h4l-1 5h-4z"/><path fill="#a0dd48" d="m182 54 4 1-1 4h-4z"/><path fill="#c1c4b6" d="M262 213h8v2l-3 1-2 2v-3h-3z"/><path fill="#d3d3c6" d="m344 234 5 4h-9z"/><path fill="#d3d3c6" d="m100 234 5 4h-9z"/><path fill="#274426" d="m205 103 2 1c-.812 2.438-.812 2.438-2 5l-3 1c1.875-4.75 1.875-4.75 3-7"/><path fill="#6b7155" d="M310 252h2l1 5-4-1z"/><path fill="#7d7d5f" d="m249 252 2 2c-.375 2.125-.375 2.125-1 4h-2a99 99 0 0 1 0-5z"/><path fill="#6a7054" d="M231 252h2l1 4h-4z"/><path fill="#696f53" d="M157 252h2l1 4h-4z"/><path fill="#bec1b3" d="m211 215 3 1v4h-2z"/><path fill="#e1e0d3" d="m158 235 4 3h-7z"/><path fill="#e8e7da" d="m76 232 4 4-3 1z"/><path fill="#6b6f54" d="M273 256h3v3l-3 1z"/><path fill="#6b6f54" d="M130 256h3v3l-3 1z"/><path fill="#7b7e63" d="M204 252h2l-1 4h-2z"/><path fill="#2e462e" d="M78 253h4l-1 3-3-1z"/></svg>