<?xml version="1.0" encoding="UTF-8"?>
<svg version="1.1" xmlns="http://www.w3.org/2000/svg" width="1584" height="396">
<path d="M0 0 C522.72 0 1045.44 0 1584 0 C1584 130.68 1584 261.36 1584 396 C1061.28 396 538.56 396 0 396 C0 265.32 0 134.64 0 0 Z " fill="#010065" transform="translate(0,0)"/>
<path d="M0 0 C1.15798096 -0.00855011 1.15798096 -0.00855011 2.33935547 -0.01727295 C3.96629495 -0.0266604 5.5932529 -0.03323181 7.22021484 -0.03710938 C9.6536781 -0.04674113 12.08626802 -0.0777934 14.51953125 -0.109375 C29.8015516 -0.21545157 43.54600627 2.53309224 58.1875 6.953125 C59.34950928 7.30165527 60.51151855 7.65018555 61.70874023 8.00927734 C79.28622188 13.40699993 93.98745445 21.13485541 108.6875 32.203125 C109.84765625 33.069375 109.84765625 33.069375 111.03125 33.953125 C125.5342311 44.98356133 138.16740873 57.94848278 146.6875 74.203125 C146.6875 74.863125 146.6875 75.523125 146.6875 76.203125 C147.3475 76.203125 148.0075 76.203125 148.6875 76.203125 C159.6875 98.82110253 159.6875 98.82110253 159.6875 106.203125 C160.3475 106.203125 161.0075 106.203125 161.6875 106.203125 C167.87847435 129.94440611 169.50842644 159.79826685 160.6875 183.203125 C160.0275 183.203125 159.3675 183.203125 158.6875 183.203125 C158.460625 184.42 158.23375 185.636875 158 186.890625 C156.46516939 193.87521649 153.88607423 200.80597653 150.6875 207.203125 C150.0275 207.203125 149.3675 207.203125 148.6875 207.203125 C148.43355469 207.89792969 148.17960937 208.59273437 147.91796875 209.30859375 C144.10947251 218.26762776 138.30153145 226.13915944 131.6875 233.203125 C130.47637533 234.61740606 129.26803818 236.03407898 128.0625 237.453125 C125.4826545 240.40727844 122.81215855 242.81851716 119.6875 245.203125 C118.54087891 246.35748047 118.54087891 246.35748047 117.37109375 247.53515625 C104.38311658 260.44751201 79.75839784 278.203125 60.6875 278.203125 C60.6875 278.863125 60.6875 279.523125 60.6875 280.203125 C24.77583817 289.73093097 -10.44248885 289.80553849 -45.75 277.765625 C-46.56662109 277.48952393 -47.38324219 277.21342285 -48.22460938 276.92895508 C-53.1910678 275.17379572 -57.65056926 273.01289595 -62.20629883 270.37426758 C-64.5197521 269.04023107 -64.5197521 269.04023107 -67.953125 267.6484375 C-71.55375411 266.09932963 -74.79019181 264.21213774 -78.0625 262.078125 C-78.66376709 261.68850586 -79.26503418 261.29888672 -79.88452148 260.89746094 C-87.71028573 255.73479567 -94.69026887 249.82535613 -101.3125 243.203125 C-102.36402969 242.35599101 -103.42540949 241.52080827 -104.5 240.703125 C-114.36705001 232.36568318 -122.30742358 219.5203844 -128.3125 208.203125 C-128.3125 207.543125 -128.3125 206.883125 -128.3125 206.203125 C-128.9725 206.203125 -129.6325 206.203125 -130.3125 206.203125 C-131.25340806 203.89196248 -132.19025669 201.57928043 -133.125 199.265625 C-133.38603516 198.62560547 -133.64707031 197.98558594 -133.91601562 197.32617188 C-137.3210641 188.87660714 -139.87688105 180.38773435 -141.9375 171.515625 C-142.1540625 170.60490234 -142.370625 169.69417969 -142.59375 168.75585938 C-144.69595454 159.82149008 -145.49485103 151.57124428 -145.5 142.390625 C-145.51224609 141.25302734 -145.52449219 140.11542969 -145.53710938 138.94335938 C-145.54848411 132.37255316 -145.03971445 126.53074178 -143.3125 120.203125 C-142.86712988 118.37402846 -142.42320524 116.54457955 -141.98046875 114.71484375 C-136.91508757 94.59183891 -136.91508757 94.59183891 -132.3125 85.203125 C-132.02503906 84.59887695 -131.73757812 83.99462891 -131.44140625 83.37207031 C-129.13692555 78.61391444 -126.52521305 74.20338839 -123.5625 69.828125 C-122.90072754 68.84888062 -122.90072754 68.84888062 -122.22558594 67.84985352 C-110.34920331 50.44962192 -89.22997213 24.60563967 -67.54296875 19.55859375 C-66.80691406 19.44128906 -66.07085937 19.32398437 -65.3125 19.203125 C-65.3125 18.543125 -65.3125 17.883125 -65.3125 17.203125 C-44.4048472 8.04466405 -23.14482503 0.13702464 0 0 Z " fill="#F39F20" transform="translate(301.3125,43.796875)"/>
<path d="M0 0 C0 16.17 0 32.34 0 49 C4.29 49 8.58 49 13 49 C13 49.66 13 50.32 13 51 C13.62261719 50.99097656 14.24523437 50.98195312 14.88671875 50.97265625 C30.66019555 51.47863947 46.32683066 57.8333115 59 67 C59.8765625 67.59167969 60.753125 68.18335938 61.65625 68.79296875 C71.31192218 75.7814105 79.42365296 86.41389834 82.44921875 98.04296875 C83.19926028 103.43156497 83.38372259 108.75101757 83.4375 114.1875 C83.44797363 115.19731934 83.45844727 116.20713867 83.46923828 117.24755859 C83.35085507 127.15444961 80.98688611 135.30064927 75.75 143.6875 C75.35232422 144.33323975 74.95464844 144.97897949 74.54492188 145.64428711 C69.82752497 153.11129035 64.50832801 157.97733432 57.015625 162.640625 C54.99402104 163.88920682 54.99402104 163.88920682 53.63671875 165.4921875 C50.79758622 168.10771294 47.19121282 169.20547143 43.65844727 170.65771484 C43.02092529 170.9202002 42.38340332 171.18268555 41.7265625 171.453125 C41.09137695 171.71287109 40.45619141 171.97261719 39.80175781 172.24023438 C38.23129525 172.90246737 36.68694154 173.62595116 35.1484375 174.359375 C24.4915394 179.33464155 11.76284252 182 0 182 C0.33 187.28 0.66 192.56 1 198 C1.66 198 2.32 198 3 198 C3.66 198.99 4.32 199.98 5 201 C7.57245509 201.64627951 7.57245509 201.64627951 10.59375 201.84375 C11.70621094 201.95589844 12.81867188 202.06804687 13.96484375 202.18359375 C15.13144531 202.28800781 16.29804688 202.39242187 17.5 202.5 C19.80324612 202.70614689 22.1054587 202.92430464 24.40625 203.15625 C25.94249023 203.29256836 25.94249023 203.29256836 27.50976562 203.43164062 C30 204 30 204 32 207 C32.46430642 210.55968258 32.27773557 212.47172622 30.59963989 215.66358948 C26.66920444 219.19604441 23.1428952 218.63703757 18.03076172 218.50756836 C17.01901886 218.50175751 16.007276 218.49594666 14.96487427 218.48995972 C11.61906562 218.46437941 8.27498822 218.40265388 4.9296875 218.33984375 C2.6085112 218.31315516 0.28731186 218.28840563 -2.03390503 218.26551819 C-6.89811357 218.21237486 -11.76169501 218.14257885 -16.62548828 218.05981445 C-22.87126053 217.95389522 -29.11691098 217.87866128 -35.36323738 217.81447506 C-40.15530571 217.76368372 -44.94718232 217.70209067 -49.73907089 217.6366291 C-52.04282766 217.60544434 -54.34661432 217.57639465 -56.65042496 217.54948235 C-59.86372589 217.50925965 -63.0765206 217.455801 -66.28955078 217.39819336 C-67.24855286 217.38817795 -68.20755493 217.37816254 -69.19561768 217.36784363 C-70.50367874 217.3402597 -70.50367874 217.3402597 -71.83816528 217.31211853 C-72.59805819 217.30009368 -73.35795109 217.28806883 -74.14087105 217.27567959 C-76 217 -76 217 -78 215 C-78.30078125 212.94140625 -78.30078125 212.94140625 -78.3125 210.5625 C-78.32925781 209.78003906 -78.34601563 208.99757813 -78.36328125 208.19140625 C-77.90653615 205.43620191 -77.17077029 204.71651427 -75 203 C-72.91870117 202.61523438 -72.91870117 202.61523438 -70.54296875 202.59375 C-69.67736328 202.57183594 -68.81175781 202.54992187 -67.91992188 202.52734375 C-67.01822266 202.51832031 -66.11652344 202.50929688 -65.1875 202.5 C-56.67828956 202.46308638 -56.67828956 202.46308638 -49 199 C-46.30100107 193.85904966 -46.38615914 187.71109046 -46 182 C-46.78761719 181.96261719 -47.57523437 181.92523438 -48.38671875 181.88671875 C-56.52009192 181.39582877 -64.11953526 180.0507265 -72 178 C-72 177.34 -72 176.68 -72 176 C-72.53625 175.93683594 -73.0725 175.87367188 -73.625 175.80859375 C-85.23853213 173.99397935 -97.20511411 168.84939106 -106 161 C-106.89332031 160.2471875 -107.78664062 159.494375 -108.70703125 158.71875 C-114.54321564 153.65603583 -119.22185424 148.74503324 -123 142 C-123.46148437 141.20851562 -123.92296875 140.41703125 -124.3984375 139.6015625 C-131.49282265 126.60202439 -131.58061324 111.15284495 -128 97 C-122.51808844 80.62336504 -110.06558995 68.09214065 -95 60.125 C-89.86681082 57.78399333 -84.53094251 55.94624787 -79.19921875 54.11328125 C-77.25325401 53.43611403 -75.32032118 52.71722893 -73.41796875 51.92578125 C-70.82357318 50.93245048 -68.35737516 50.36823678 -65.625 49.875 C-64.28308594 49.62363281 -64.28308594 49.62363281 -62.9140625 49.3671875 C-60 49 -60 49 -53 49 C-53 54.94 -53 60.88 -53 67 C-54.629375 67.556875 -56.25875 68.11375 -57.9375 68.6875 C-67.49839268 72.20217263 -75.52884838 75.99094385 -80.21875 85.4609375 C-83.91082873 94.24281048 -84.21368302 102.62562953 -84.24023438 112.03808594 C-84.24987706 114.09872807 -84.28092289 116.15834382 -84.3125 118.21875 C-84.41040526 130.32202585 -83.21304282 141.58413169 -75 151 C-63.18976694 162.81023306 -45.9397696 165.20919919 -30.03407288 165.23361206 C-28.65494008 165.22759477 -27.27581779 165.21831083 -25.89672852 165.20581055 C-23.80407573 165.18742599 -21.71186634 165.18530277 -19.61914062 165.18554688 C-5.57846171 165.34628313 -5.57846171 165.34628313 7.86328125 161.8828125 C10.4152552 160.82843204 13.01316654 159.95778435 15.625 159.0625 C23.5280821 156.16288643 30.15750454 151.76490043 33.97265625 144.02734375 C34.65614292 142.35469045 35.32893054 140.67767365 36 139 C36.66 138.67 37.32 138.34 38 138 C39.26392952 132.93730164 39.12934212 127.84539823 39.09765625 122.6640625 C39.0962413 121.78471039 39.09482635 120.90535828 39.09336853 119.99935913 C39.08779877 117.20787058 39.0752519 114.41646406 39.0625 111.625 C39.05748109 109.72526158 39.05291887 107.8255219 39.04882812 105.92578125 C39.03783925 101.28382286 39.02059557 96.64192531 39 92 C38.34 92 37.68 92 37 92 C36.68289063 91.2265625 36.36578125 90.453125 36.0390625 89.65625 C31.95405613 80.53833522 27.19245836 74.48293048 17.74609375 70.6953125 C14.51338321 69.66893627 11.29681971 68.79469879 8 68 C4.04 67.01 4.04 67.01 0 66 C0 96.03 0 126.06 0 157 C-8.6031684 158.32356437 -16.19778045 159.29803889 -24.75 159.1875 C-25.71292969 159.18685547 -26.67585938 159.18621094 -27.66796875 159.18554688 C-43.91364654 159.08635346 -43.91364654 159.08635346 -46 157 C-46.10582645 155.45537297 -46.1423963 153.90594836 -46.15148926 152.35772705 C-46.15983292 151.3538797 -46.16817657 150.35003235 -46.17677307 149.31576538 C-46.18095749 148.20512726 -46.18514191 147.09448914 -46.18945312 145.95019531 C-46.20189308 144.20638077 -46.20189308 144.20638077 -46.21458435 142.42733765 C-46.23203242 139.89276773 -46.24718604 137.35818125 -46.26036072 134.82358551 C-46.28132017 130.81470436 -46.3082089 126.80588804 -46.33703613 122.79705811 C-46.39720407 114.28140645 -46.44895992 105.76571049 -46.5 97.25 C-46.55507931 88.07121141 -46.61166911 78.89244515 -46.67754889 69.71372676 C-46.71042233 65.08808194 -46.73577797 60.46242847 -46.7598877 55.83673096 C-46.77649255 53.41361296 -46.79336456 50.99049678 -46.81054688 48.56738281 C-46.81473129 47.46484161 -46.81891571 46.36230042 -46.82322693 45.22634888 C-46.83157059 44.21122223 -46.83991425 43.19609558 -46.84851074 42.15020752 C-46.85624134 40.8316873 -46.85624134 40.8316873 -46.86412811 39.4865303 C-47.00495714 36.90928152 -47.43354795 34.51522067 -48 32 C-54.79765674 30.09477441 -61.33788106 29.42300626 -68.37304688 29.05273438 C-74.50760133 28.5606057 -74.50760133 28.5606057 -77.05859375 25.65625 C-78.25101459 22.29174306 -78.26745989 19.54384359 -78 16 C-77.67 15.34 -77.34 14.68 -77 14 C-75.28857422 13.45336914 -75.28857422 13.45336914 -73.0546875 13.03515625 C-71.82226318 12.79744507 -71.82226318 12.79744507 -70.56494141 12.55493164 C-69.23342041 12.31117798 -69.23342041 12.31117798 -67.875 12.0625 C-66.96282715 11.88775146 -66.0506543 11.71300293 -65.11083984 11.53295898 C-62.40843055 11.01538051 -59.70432637 10.50744797 -57 10 C-48.13825885 8.29171255 -39.31123987 6.45119512 -30.5 4.5 C-29.56752441 4.29834229 -28.63504883 4.09668457 -27.67431641 3.88891602 C-22.46428518 2.71875109 -17.85221092 1.22029189 -13 -1 C-8.2149152 -2.14842035 -4.455561 -2.2277805 0 0 Z " fill="#040273" transform="translate(335,74)"/>
<path d="M0 0 C522.72 0 1045.44 0 1584 0 C1584 130.68 1584 261.36 1584 396 C1061.28 396 538.56 396 0 396 C0 265.32 0 134.64 0 0 Z M4 4 C4 132.04 4 260.08 4 392 C524.08 392 1044.16 392 1580 392 C1580 263.96 1580 135.92 1580 4 C1059.92 4 539.84 4 4 4 Z " fill="#000000" transform="translate(0,0)"/>
<path d="M0 0 C6.59141386 3.82623536 11.12222634 8.66186927 13.5625 15.9375 C15.61288111 24.2791126 15.23086606 32.11534217 11.625 40 C7.98537377 45.33995667 3.17797892 50.46854345 -3.09375 52.578125 C-9.52427527 53.76733173 -18.5800878 54.5677954 -24.5 51.3125 C-31.01099789 46.07539301 -36.48160667 40.36248719 -38.375 32 C-39.20681749 22.76244785 -38.21191697 14.11742609 -32.3125 6.6875 C-23.57352161 -2.30689738 -11.68084728 -5.21910198 0 0 Z " fill="#F6F1FD" transform="translate(1338.375,144)"/>
<path d="M0 0 C8.21859004 4.2653442 12.21992536 9.59727609 15.125 18.3125 C15.75878614 26.97770729 15.94732571 34.78650972 11.125 42.3125 C10.76277344 42.88484375 10.40054688 43.4571875 10.02734375 44.046875 C6.27657066 49.18352697 0.97134757 51.36371748 -4.875 53.3125 C-13.66432247 54.10331308 -20.84829172 54.03796601 -27.875 48.3125 C-33.59638025 43.12041044 -36.50140672 37.4773732 -37.19140625 29.78515625 C-37.43052089 22.0640674 -37.01904569 15.92564608 -32.875 9.3125 C-32.318125 8.405 -31.76125 7.4975 -31.1875 6.5625 C-22.92116843 -1.4804172 -10.82687679 -4.56643783 0 0 Z " fill="#DFF1FB" transform="translate(621.875,143.6875)"/>
<path d="M0 0 C2.64516144 0.43228319 3.26589067 1.30627597 5.0078125 3.328125 C5.98692558 4.99055394 6.90728638 6.6882055 7.78515625 8.40625 C8.55569336 9.90091797 8.55569336 9.90091797 9.34179688 11.42578125 C9.87095703 12.46605469 10.40011719 13.50632813 10.9453125 14.578125 C14.1858613 20.90017727 17.41460214 27.19802154 21.0078125 33.328125 C23.33241067 30.39280552 25.11043325 27.41023114 26.8203125 24.08203125 C27.33851563 23.07978516 27.85671875 22.07753906 28.390625 21.04492188 C28.92429687 20.00400391 29.45796875 18.96308594 30.0078125 17.890625 C31.06889236 15.82869565 32.13134652 13.76747283 33.1953125 11.70703125 C33.66324219 10.7951001 34.13117187 9.88316895 34.61328125 8.94360352 C37.39466378 3.72705045 37.39466378 3.72705045 39.0078125 1.328125 C41.453125 0.8046875 41.453125 0.8046875 44.1328125 0.953125 C45.02226563 0.98664063 45.91171875 1.02015625 46.828125 1.0546875 C49.0078125 1.328125 49.0078125 1.328125 50.0078125 2.328125 C50.10642848 3.94939923 50.13580017 5.57494868 50.13720703 7.19921875 C50.14035919 8.23699463 50.14351135 9.27477051 50.14675903 10.34399414 C50.1447348 11.47313232 50.14271057 12.60227051 50.140625 13.765625 C50.14158173 14.91603271 50.14253845 16.06644043 50.14352417 17.25170898 C50.14420619 19.68961644 50.1423504 22.1275257 50.13818359 24.56542969 C50.13283567 28.31189018 50.13812789 32.05823077 50.14453125 35.8046875 C50.14387047 38.16666693 50.14258932 40.52864629 50.140625 42.890625 C50.14264923 44.01976318 50.14467346 45.14890137 50.14675903 46.31225586 C50.14203079 47.86891968 50.14203079 47.86891968 50.13720703 49.45703125 C50.13641144 50.37556885 50.13561584 51.29410645 50.13479614 52.24047852 C50.0078125 54.328125 50.0078125 54.328125 49.0078125 55.328125 C46.3678125 55.328125 43.7278125 55.328125 41.0078125 55.328125 C40.5128125 38.003125 40.5128125 38.003125 40.0078125 20.328125 C35.81766209 28.41954002 35.81766209 28.41954002 31.63134766 36.51293945 C31.10847168 37.5205835 30.5855957 38.52822754 30.046875 39.56640625 C29.51271973 40.59805908 28.97856445 41.62971191 28.42822266 42.69262695 C27.0078125 45.328125 27.0078125 45.328125 25.0078125 48.328125 C21.3828125 48.515625 21.3828125 48.515625 18.0078125 48.328125 C16.06855455 44.78741822 14.13172129 41.24539067 12.1953125 37.703125 C11.64810547 36.70410156 11.10089844 35.70507812 10.53710938 34.67578125 C10.00537109 33.70253906 9.47363281 32.72929687 8.92578125 31.7265625 C8.43875732 30.83630371 7.9517334 29.94604492 7.44995117 29.02880859 C5.91608108 26.15634017 4.46409766 23.24069532 3.0078125 20.328125 C2.6778125 31.878125 2.3478125 43.428125 2.0078125 55.328125 C-0.6321875 55.328125 -3.2721875 55.328125 -5.9921875 55.328125 C-7.65935434 53.66095816 -7.11963632 51.6550636 -7.12158203 49.36523438 C-7.12473419 48.30743774 -7.12788635 47.24964111 -7.13113403 46.15979004 C-7.12809769 44.43327209 -7.12809769 44.43327209 -7.125 42.671875 C-7.12595673 41.49927124 -7.12691345 40.32666748 -7.12789917 39.11853027 C-7.1285812 36.63354438 -7.12672534 34.14855671 -7.12255859 31.66357422 C-7.11721069 27.84468613 -7.12250286 24.02591565 -7.12890625 20.20703125 C-7.12824547 17.79947891 -7.12696432 15.39192663 -7.125 12.984375 C-7.12702423 11.83336304 -7.12904846 10.68235107 -7.13113403 9.49645996 C-7.12798187 8.43866333 -7.12482971 7.3808667 -7.12158203 6.29101562 C-7.12078644 5.35471313 -7.11999084 4.41841064 -7.11917114 3.45373535 C-6.85462159 -0.9746246 -3.78023925 0.13949222 0 0 Z " fill="#E9F1FA" transform="translate(651.9921875,141.671875)"/>
<path d="M0 0 C23 0 23 0 31 3 C34.66266715 6.7565817 36.13727603 9.97689233 36.3125 15.1875 C36.24964138 19.99618435 35.13055312 24.25948238 32 28 C30.34866784 28.70379281 28.68244098 29.37420884 27 30 C27.39380859 30.58491211 27.78761719 31.16982422 28.19335938 31.77246094 C29.97179336 34.42537932 31.73598514 37.08747446 33.5 39.75 C34.12003906 40.67039063 34.74007812 41.59078125 35.37890625 42.5390625 C35.96542969 43.42851562 36.55195312 44.31796875 37.15625 45.234375 C37.70087891 46.05131836 38.24550781 46.86826172 38.80664062 47.70996094 C40 50 40 50 40 54 C36.52128252 54.56695396 33.46430384 54.72532277 30 54 C26.135337 50.8257234 23.846387 46.55752659 21.484375 42.2109375 C20.99453125 41.31632812 20.5046875 40.42171875 20 39.5 C19.5875 38.6646875 19.175 37.829375 18.75 36.96875 C16.65164384 34.18125598 16.65164384 34.18125598 10 34 C10 40.6 10 47.2 10 54 C6.7 54 3.4 54 0 54 C0 36.18 0 18.36 0 0 Z " fill="#E4F2FD" transform="translate(893,143)"/>
<path d="M0 0 C1.12083984 -0.03738281 2.24167969 -0.07476562 3.39648438 -0.11328125 C10.43899801 -0.18771768 15.71464546 0.33123389 20.9375 5.375 C25.12966105 11.50520376 24.795647 18.21822067 23.9375 25.375 C22.28803593 30.11621314 19.22554094 32.51066834 14.875 34.8125 C9.34290968 37.00851558 3.79475857 36.73178732 -2.0625 36.375 C-2.05089844 37.59058594 -2.03929687 38.80617187 -2.02734375 40.05859375 C-2.01796722 41.64322764 -2.00886687 43.22786318 -2 44.8125 C-1.99162109 45.61494141 -1.98324219 46.41738281 -1.97460938 47.24414062 C-1.9659857 49.28795221 -2.0102185 51.33183902 -2.0625 53.375 C-3.0625 54.375 -3.0625 54.375 -5.09375 54.5078125 C-5.9084375 54.50523437 -6.723125 54.50265625 -7.5625 54.5 C-8.3771875 54.50257813 -9.191875 54.50515625 -10.03125 54.5078125 C-12.0625 54.375 -12.0625 54.375 -13.0625 53.375 C-13.16111598 51.75372577 -13.19048767 50.12817632 -13.19189453 48.50390625 C-13.19504669 47.46613037 -13.19819885 46.42835449 -13.20144653 45.35913086 C-13.1994223 44.22999268 -13.19739807 43.10085449 -13.1953125 41.9375 C-13.19674759 40.21188843 -13.19674759 40.21188843 -13.19821167 38.45141602 C-13.19889369 36.01350856 -13.1970379 33.5755993 -13.19287109 31.13769531 C-13.18752317 27.39123482 -13.19281539 23.64489423 -13.19921875 19.8984375 C-13.19855797 17.53645807 -13.19727682 15.17447871 -13.1953125 12.8125 C-13.19733673 11.68336182 -13.19936096 10.55422363 -13.20144653 9.39086914 C-13.19829437 8.35309326 -13.19514221 7.31531738 -13.19189453 6.24609375 C-13.19109894 5.32755615 -13.19030334 4.40901855 -13.18948364 3.46264648 C-12.85708456 -2.00208717 -4.12045139 0.05089833 0 0 Z " fill="#E4EBF8" transform="translate(725.0625,142.625)"/>
<path d="M0 0 C7 0 7 0 9.4140625 2.02734375 C10.14367188 2.98769531 10.87328125 3.94804687 11.625 4.9375 C12.03250488 5.46093994 12.44000977 5.98437988 12.85986328 6.52368164 C13.76093671 7.68783363 14.65154173 8.86014081 15.53320312 10.0390625 C17.13252676 12.17717293 18.75937207 14.29241043 20.390625 16.40625 C23.11610702 19.9443618 25.82107969 23.49721717 28.51123047 27.06225586 C30.30777948 29.40059786 32.15789816 31.6973727 34 34 C34.33 23.11 34.66 12.22 35 1 C37.64 1 40.28 1 43 1 C44 2 44 2 44.12025452 4.13233948 C44.11803391 5.07165817 44.11581329 6.01097687 44.11352539 6.97875977 C44.11344986 8.03978409 44.11337433 9.10080841 44.11329651 10.19398499 C44.10813522 11.348134 44.10297394 12.50228302 44.09765625 13.69140625 C44.0962413 14.86638168 44.09482635 16.04135712 44.09336853 17.25193787 C44.08774992 21.02215064 44.07519426 24.79230504 44.0625 28.5625 C44.0574874 31.11132727 44.05292408 33.66015547 44.04882812 36.20898438 C44.03777444 42.47267633 44.02101821 48.73633399 44 55 C37.26025391 55.18896484 37.26025391 55.18896484 34.91796875 53.48828125 C34.34691406 52.77027344 33.77585937 52.05226562 33.1875 51.3125 C32.51976562 50.49007812 31.85203125 49.66765625 31.1640625 48.8203125 C30.44992187 47.88960937 29.73578125 46.95890625 29 46 C28.20335937 44.98679688 27.40671875 43.97359375 26.5859375 42.9296875 C20.94406476 35.70683255 15.49856859 28.33142478 10 21 C9.67 32.22 9.34 43.44 9 55 C6.03 55 3.06 55 0 55 C0 36.85 0 18.7 0 0 Z " fill="#ECF5FD" transform="translate(1104,142)"/>
<path d="M0 0 C10.89 0 21.78 0 33 0 C33 3.63 33 7.26 33 11 C25.41 11 17.82 11 10 11 C10 14.63 10 18.26 10 22 C15.94 22 21.88 22 28 22 C28 25.63 28 29.26 28 33 C22.06 33 16.12 33 10 33 C10 36.63 10 40.26 10 44 C17.59 44 25.18 44 33 44 C33 47.63 33 51.26 33 55 C22.11 55 11.22 55 0 55 C0 36.85 0 18.7 0 0 Z " fill="#DEE9FC" transform="translate(1429,142)"/>
<path d="M0 0 C1.47906892 -0.02689216 2.95827483 -0.04634621 4.4375 -0.0625 C5.26121094 -0.07410156 6.08492187 -0.08570313 6.93359375 -0.09765625 C9 0 9 0 10 1 C10.11066328 3.53325592 10.16161055 6.04384891 10.17578125 8.578125 C10.19898903 10.14714869 10.22310675 11.71615914 10.24804688 13.28515625 C10.28310752 15.76489996 10.31246831 18.24416019 10.32592773 20.72412109 C10.34144355 23.11355715 10.38168517 25.50156744 10.42578125 27.890625 C10.42387283 28.62726379 10.42196442 29.36390259 10.41999817 30.12286377 C10.53582742 35.01931098 11.5073326 37.5632512 15 41 C18.46015135 42.73007568 22.21672555 42.4835273 26 42 C29.49890004 39.88608123 30.70578686 38.88263941 32 35 C32.15346953 32.34393699 32.25717898 29.70904905 32.31640625 27.05078125 C32.33718735 26.27816452 32.35796844 25.50554779 32.37937927 24.70951843 C32.44471038 22.2439352 32.50368315 19.77824639 32.5625 17.3125 C32.60570087 15.63996309 32.64931566 13.96743681 32.69335938 12.29492188 C32.8003749 8.1967225 32.90168857 4.09841704 33 0 C36.3 0 39.6 0 43 0 C43.12459983 5.22859225 43.21480498 10.45630019 43.2746582 15.68603516 C43.29963627 17.46092809 43.33363126 19.23571993 43.37719727 21.01025391 C43.84554532 40.5927125 43.84554532 40.5927125 38 48 C32.95431817 53.0839828 28.60310488 54.40943175 21.4375 54.6875 C15.12234561 54.40303359 10.48318347 53.62708812 6 49 C1.06229136 42.60709762 -0.1484514 37.4224944 -0.09765625 29.39453125 C-0.0962413 28.55532639 -0.09482635 27.71612152 -0.09336853 26.85148621 C-0.08777215 24.17178784 -0.07522035 21.4921731 -0.0625 18.8125 C-0.05748453 16.99544392 -0.05292171 15.17838652 -0.04882812 13.36132812 C-0.03780391 8.90751987 -0.02054178 4.45377411 0 0 Z " fill="#EAF6FC" transform="translate(756,143)"/>
<path d="M0 0 C5.259375 -0.020625 10.51875 -0.04125 15.9375 -0.0625 C17.599021 -0.071604 19.26054199 -0.08070801 20.97241211 -0.09008789 C22.26928955 -0.09258545 23.56616699 -0.09508301 24.90234375 -0.09765625 C25.93107605 -0.1053302 25.93107605 -0.1053302 26.98059082 -0.11315918 C28.65415231 -0.11347054 30.3275958 -0.06222837 32 0 C33 1 33 1 33 10 C25.41 10 17.82 10 10 10 C10 13.96 10 17.92 10 22 C15.94 22 21.88 22 28 22 C28 24.97 28 27.94 28 31 C22.06 31 16.12 31 10 31 C10 34.96 10 38.92 10 43 C17.59 43 25.18 43 33 43 C33 46.63 33 50.26 33 54 C22.11 54 11.22 54 0 54 C0 36.18 0 18.36 0 0 Z " fill="#E0F1FD" transform="translate(852,143)"/>
<path d="M0 0 C5.259375 -0.020625 10.51875 -0.04125 15.9375 -0.0625 C17.599021 -0.071604 19.26054199 -0.08070801 20.97241211 -0.09008789 C22.26928955 -0.09258545 23.56616699 -0.09508301 24.90234375 -0.09765625 C25.93107605 -0.1053302 25.93107605 -0.1053302 26.98059082 -0.11315918 C28.65415231 -0.11347054 30.3275958 -0.06222837 32 0 C33 1 33 1 33 10 C25.41 10 17.82 10 10 10 C10 14.29 10 18.58 10 23 C15.94 23 21.88 23 28 23 C28 25.64 28 28.28 28 31 C22.06 31 16.12 31 10 31 C10 34.96 10 38.92 10 43 C17.59 43 25.18 43 33 43 C33 46.63 33 50.26 33 54 C22.11 54 11.22 54 0 54 C0 36.18 0 18.36 0 0 Z " fill="#E4F1FD" transform="translate(1206,143)"/>
<path d="M0 0 C3.375 2.0625 3.375 2.0625 4.375 3.0625 C4.66856154 6.68309232 4.22564319 8.93953962 2.375 12.0625 C-3.5 11.1875 -3.5 11.1875 -4.625 10.0625 C-6.47787502 9.99023498 -8.33333878 9.9786878 -10.1875 10 C-11.19941406 10.00902344 -12.21132812 10.01804688 -13.25390625 10.02734375 C-14.03636719 10.03894531 -14.81882812 10.05054688 -15.625 10.0625 C-15.955 11.7125 -16.285 13.3625 -16.625 15.0625 C-12.43554404 17.19531394 -8.30291067 19.19426554 -3.9375 20.9375 C0.17082733 22.79975218 3.60154857 24.74453131 5.375 29.0625 C6.28082146 35.46481089 6.30740766 41.68820954 2.375 47.0625 C-3.22087596 52.52407494 -7.05230885 53.40349205 -14.79516602 53.44970703 C-19.79804217 53.34255844 -23.37846072 52.61351275 -27.359375 49.55859375 C-28.625 48.0625 -28.625 48.0625 -29.3125 45 C-28.59792972 41.94683606 -27.73499231 40.348325 -25.625 38.0625 C-23.47849054 38.52246631 -21.72567969 39.00623148 -19.80078125 40.08203125 C-17.24487244 41.23379626 -15.35704049 41.36235502 -12.5625 41.375 C-11.27666016 41.40013672 -11.27666016 41.40013672 -9.96484375 41.42578125 C-7.57917834 41.22626042 -7.57917834 41.22626042 -5.75390625 39.79296875 C-4.47045177 38.12377008 -4.47045177 38.12377008 -4.453125 36.05078125 C-6.39061323 32.76350955 -9.90926149 32.31600077 -13.375 31.25 C-23.46385233 27.78676169 -23.46385233 27.78676169 -25.99609375 22.9765625 C-27.98013279 16.9381828 -28.27461048 11.76534494 -25.71484375 5.85546875 C-20.31745899 -3.02409972 -8.84148249 -4.41274714 0 0 Z " fill="#D7EBFB" transform="translate(1289.625,143.9375)"/>
<path d="M0 0 C1.34888732 0.00015905 2.69778075 0.00584927 4.04663086 0.01586914 C5.10991859 0.01799156 5.10991859 0.01799156 6.19468689 0.02015686 C8.46699173 0.02577096 10.73919936 0.03832576 13.01147461 0.05102539 C14.54858257 0.05603858 16.08569206 0.0606018 17.62280273 0.06469727 C21.39823103 0.07574497 25.17358632 0.09301898 28.94897461 0.11352539 C28.94897461 3.08352539 28.94897461 6.05352539 28.94897461 9.11352539 C21.35897461 9.11352539 13.76897461 9.11352539 5.94897461 9.11352539 C5.94897461 13.40352539 5.94897461 17.69352539 5.94897461 22.11352539 C11.88897461 22.11352539 17.82897461 22.11352539 23.94897461 22.11352539 C23.94897461 24.75352539 23.94897461 27.39352539 23.94897461 30.11352539 C18.00897461 30.11352539 12.06897461 30.11352539 5.94897461 30.11352539 C5.94897461 34.07352539 5.94897461 38.03352539 5.94897461 42.11352539 C13.53897461 42.11352539 21.12897461 42.11352539 28.94897461 42.11352539 C28.94897461 45.74352539 28.94897461 49.37352539 28.94897461 53.11352539 C24.40999756 53.13817931 19.87105918 53.15636328 15.33203125 53.16845703 C13.78677695 53.17349679 12.24152745 53.18032859 10.69628906 53.18896484 C8.47972432 53.20104615 6.26322243 53.20675712 4.04663086 53.21118164 C3.00443138 53.21892357 3.00443138 53.21892357 1.94117737 53.2268219 C0.27668131 53.22701816 -1.38768038 53.17541668 -3.05102539 53.11352539 C-4.69190284 51.47264794 -4.17842294 49.59521477 -4.18041992 47.33422852 C-4.18357208 46.31647339 -4.18672424 45.29871826 -4.18997192 44.25012207 C-4.18794769 43.14285767 -4.18592346 42.03559326 -4.18383789 40.89477539 C-4.18479462 39.76656372 -4.18575134 38.63835205 -4.18673706 37.47595215 C-4.18741907 35.08512313 -4.18556336 32.69429228 -4.18139648 30.3034668 C-4.17604855 26.62943388 -4.18134082 22.95552322 -4.18774414 19.28149414 C-4.18708336 16.96508762 -4.18580221 14.64868117 -4.18383789 12.33227539 C-4.18687424 10.67137878 -4.18687424 10.67137878 -4.18997192 8.97692871 C-4.18681976 7.95917358 -4.1836676 6.94141846 -4.18041992 5.89282227 C-4.17962433 4.99204956 -4.17882874 4.09127686 -4.17800903 3.16320801 C-3.97115691 -0.17565669 -3.41672218 0.12713258 0 0 Z " fill="#EAEFFD" transform="translate(1067.051025390625,143.886474609375)"/>
<path d="M0 0 C2.42574727 1.22150005 4.78820527 2.4930066 7.12109375 3.8828125 C6.62311005 7.61769027 6.24617619 9.69518885 4.12109375 12.8828125 C-0.62890625 12.0078125 -0.62890625 12.0078125 -2.87890625 10.8828125 C-4.5859336 10.81285236 -6.29558628 10.79841096 -8.00390625 10.8203125 C-8.91398438 10.82933594 -9.8240625 10.83835938 -10.76171875 10.84765625 C-11.46039062 10.85925781 -12.1590625 10.87085938 -12.87890625 10.8828125 C-13.53890625 12.8628125 -14.19890625 14.8428125 -14.87890625 16.8828125 C-14.07839844 17.12064453 -14.07839844 17.12064453 -13.26171875 17.36328125 C-6.00129503 19.63687415 1.34172678 22.03727012 6.74609375 27.5703125 C9.18812933 33.45339821 8.77820131 38.65594798 6.99609375 44.6953125 C4.49594204 48.9455704 1.58985754 51.6484306 -2.87890625 53.8828125 C-11.13950903 54.54409435 -17.93529052 54.68993108 -24.87890625 49.8828125 C-26.12890625 47.90625 -26.12890625 47.90625 -26.87890625 45.8828125 C-25.99336445 42.7834162 -25.16614741 41.17005366 -22.87890625 38.8828125 C-20.19234529 39.17065832 -18.44199603 40.1255404 -16.06640625 41.4453125 C-12.36628345 43.11399533 -9.89727608 43.26190399 -5.87890625 42.8828125 C-4.88890625 42.2228125 -3.89890625 41.5628125 -2.87890625 40.8828125 C-2.62869055 37.79915379 -2.62869055 37.79915379 -2.87890625 34.8828125 C-3.97589844 34.51929688 -5.07289063 34.15578125 -6.203125 33.78125 C-7.65789692 33.27442623 -9.11230526 32.76655801 -10.56640625 32.2578125 C-11.28763672 32.02191406 -12.00886719 31.78601563 -12.75195312 31.54296875 C-18.06978646 29.64894592 -20.67417394 27.55204007 -23.87890625 22.8828125 C-25.60127822 17.7156966 -25.53452247 12.77681492 -23.75390625 7.6328125 C-18.120171 -0.6299992 -9.48341154 -3.68012985 0 0 Z " fill="#E0ECFB" transform="translate(978.87890625,143.1171875)"/>
<path d="M0 0 C1.65141338 0.96069483 3.25019196 2.01054464 4.83984375 3.0703125 C4.30915314 6.89128489 3.34282809 9.13202653 0.83984375 12.0703125 C-2.5347834 11.52307567 -4.24250625 11.0154125 -7.16015625 9.0703125 C-12.41692385 8.42632103 -17.41834339 8.21717967 -22.22265625 10.5703125 C-26.01381634 15.46213197 -27.78109646 20.84284947 -27.51171875 27.05078125 C-26.67682696 31.84677076 -24.57411414 35.69920182 -21.09765625 39.0703125 C-15.27871088 41.05123007 -9.32049634 41.05228527 -3.72265625 38.5078125 C-2.87703125 38.0334375 -2.03140625 37.5590625 -1.16015625 37.0703125 C1.91201319 37.32632662 2.62548269 37.85595144 4.83984375 40.0703125 C5.27734375 42.4453125 5.27734375 42.4453125 4.83984375 45.0703125 C2.65234375 47.1953125 2.65234375 47.1953125 -0.16015625 49.0703125 C-0.88332031 49.59367187 -1.60648438 50.11703125 -2.3515625 50.65625 C-8.49385314 53.74875238 -17.50045055 53.11378231 -23.99609375 51.26171875 C-30.7713446 47.92034077 -34.57025809 42.08057108 -37.296875 35.203125 C-39.62739608 26.74575892 -38.91835747 17.55089953 -35.5546875 9.48046875 C-28.14209091 -3.33065758 -12.74158093 -6.40638147 0 0 Z " fill="#D8EEFC" transform="translate(1396.16015625,144.9296875)"/>
<path d="M0 0 C1.86328125 1.58203125 1.86328125 1.58203125 2.75390625 4.08203125 C2.86328125 6.58203125 2.86328125 6.58203125 0.92578125 9.39453125 C0.24515625 10.11640625 -0.43546875 10.83828125 -1.13671875 11.58203125 C-3.26340971 11.12631176 -5.01007482 10.65328586 -6.9140625 9.58203125 C-11.46831885 7.53301609 -16.29587606 7.67200338 -21.13671875 8.58203125 C-25.27643879 11.16409392 -27.52435077 14.41855538 -28.84765625 19.09375 C-29.56063539 24.26680973 -29.22663151 28.73723349 -27.13671875 33.58203125 C-23.13645755 38.2234763 -23.13645755 38.2234763 -17.4921875 39.78515625 C-15.92404297 39.80835938 -15.92404297 39.80835938 -14.32421875 39.83203125 C-13.28652344 39.8578125 -12.24882813 39.88359375 -11.1796875 39.91015625 C-7.76060686 39.5414749 -5.97906161 38.44238413 -3.13671875 36.58203125 C-0.1001238 36.84231082 0.67336705 37.39211705 2.86328125 39.58203125 C3.36328125 41.89453125 3.36328125 41.89453125 2.86328125 44.58203125 C-2.47102659 49.91633909 -7.20370288 51.87445984 -14.82421875 52.01953125 C-21.60220894 51.89177856 -26.76386759 50.84870717 -32.13671875 46.58203125 C-38.63006658 39.22290371 -40.61174825 31.64637501 -40.45703125 21.9765625 C-39.78171424 14.81984927 -37.37922342 7.6703446 -32.13671875 2.58203125 C-22.11365833 -5.04421037 -11.14436158 -5.59884194 0 0 Z " fill="#D9EEFB" transform="translate(1032.13671875,145.41796875)"/>
<path d="M0 0 C2.98213833 1.51511867 4.00775396 2.12951558 5.13671875 5.3125 C5.25 7.8125 5.25 7.8125 3.3125 10.625 C2.631875 11.346875 1.95125 12.06875 1.25 12.8125 C-0.88804364 12.35434779 -2.6132624 11.89223833 -4.51171875 10.78515625 C-7.392153 9.53344922 -9.68204538 9.58232961 -12.8125 9.625 C-13.85535156 9.63144531 -14.89820313 9.63789063 -15.97265625 9.64453125 C-18.83614608 9.69767035 -18.83614608 9.69767035 -21.75 10.8125 C-22.83431094 12.56117483 -22.83431094 12.56117483 -23.75 14.8125 C-24.28625 15.740625 -24.8225 16.66875 -25.375 17.625 C-27.91772081 23.51948914 -27.03570407 28.93497524 -24.75 34.8125 C-22.5440375 37.34935688 -20.76023556 39.30738222 -17.75 40.8125 C-15.98229673 40.93490135 -14.20939538 40.98801153 -12.4375 41 C-11.49261719 41.01417969 -10.54773437 41.02835938 -9.57421875 41.04296875 C-6.58860423 40.79932939 -4.46789859 40.03230773 -1.75 38.8125 C-0.42323492 38.45391484 0.90835921 38.1106424 2.25 37.8125 C3.57 39.4625 4.89 41.1125 6.25 42.8125 C3.96577853 47.14049858 1.29584032 50.79049618 -3.51953125 52.40625 C-11.13046889 53.79248032 -19.9929543 53.97984096 -26.75 49.8125 C-32.69586414 45.40815619 -36.05738778 39.9935826 -37.75 32.8125 C-38.94261535 22.91502212 -37.17842621 14.44491448 -32 5.9375 C-23.087649 -2.47972039 -11.4572338 -5.27396477 0 0 Z " fill="#E4EFFC" transform="translate(1193.75,144.1875)"/>
<path d="M0 0 C5.42931937 3.05399215 5.42931937 3.05399215 7 4.6875 C7.58006212 7.91927469 7.29268598 9.23627578 5.5 12 C5.005 12.556875 4.51 13.11375 4 13.6875 C1.49207147 13.26951191 -0.62030814 12.89525592 -2.86328125 11.66796875 C-6.73428639 9.891694 -10.83168978 10.24766207 -15 10.6875 C-18.74702299 12.28197787 -20.893247 14.21135756 -23 17.6875 C-24.7610999 23.39884483 -24.7896584 29.4432077 -22.8125 35.0625 C-20.6309053 38.22205095 -19.43091023 39.86701702 -16 41.6875 C-9.11748566 42.54781429 -4.10753175 42.04664246 2 38.6875 C4.79235104 39.54071837 5.92857596 40.61607596 8 42.6875 C8.125 45 8.125 45 7 47.6875 C-0.70898556 53.86501298 -8.32565927 54.59381079 -18 53.6875 C-24.87882777 51.56636291 -29.56249369 46.9200934 -33 40.6875 C-36.38205819 32.44736511 -36.42158872 21.54072679 -33.5 13.125 C-30.50638729 6.84158676 -25.60316957 3.23938955 -19.75 -0.25 C-13.35765572 -2.06116421 -6.27178462 -2.55467089 0 0 Z " fill="#E9EFFC" transform="translate(573,143.3125)"/>
<path d="M0 0 C10.89 0 21.78 0 33 0 C33 2.64 33 5.28 33 8 C25.41 8 17.82 8 10 8 C10 12.29 10 16.58 10 21 C15.94 21 21.88 21 28 21 C28 23.64 28 26.28 28 29 C22.06 29 16.12 29 10 29 C10 33.62 10 38.24 10 43 C17.59 43 25.18 43 33 43 C33 45.64 33 48.28 33 51 C22.11 51 11.22 51 0 51 C0 34.17 0 17.34 0 0 Z " fill="#F2F2F4" transform="translate(649,45)"/>
<path d="M0 0 C10.56 0 21.12 0 32 0 C32 2.64 32 5.28 32 8 C24.74 8 17.48 8 10 8 C10 12.29 10 16.58 10 21 C15.61 21 21.22 21 27 21 C27 23.64 27 26.28 27 29 C21.39 29 15.78 29 10 29 C10 33.62 10 38.24 10 43 C17.26 43 24.52 43 32 43 C32 45.64 32 48.28 32 51 C21.44 51 10.88 51 0 51 C0 34.17 0 17.34 0 0 Z " fill="#F5F5F7" transform="translate(568,45)"/>
<path d="M0 0 C1.41396973 -0.13595863 2.83176684 -0.23243845 4.25 -0.3125 C5.03890625 -0.37050781 5.8278125 -0.42851562 6.640625 -0.48828125 C10.18754311 0.24576637 11.00602429 2.02461437 13 5 C14.65679499 7.6487012 16.21785587 10.34007452 17.75 13.0625 C18.16121094 13.76955078 18.57242187 14.47660156 18.99609375 15.20507812 C19.38410156 15.89150391 19.77210937 16.57792969 20.171875 17.28515625 C20.5234668 17.90269775 20.87505859 18.52023926 21.23730469 19.15649414 C22 21 22 21 22 25 C22.66 25 23.32 25 24 25 C24.2371875 24.01644531 24.474375 23.03289062 24.71875 22.01953125 C26.00194302 17.53400353 28.16929652 13.70479881 30.5 9.6875 C30.90347656 8.97271484 31.30695313 8.25792969 31.72265625 7.52148438 C34.71155563 2.28844437 34.71155563 2.28844437 37 0 C39.3828125 -0.1953125 39.3828125 -0.1953125 42.125 -0.125 C43.03507812 -0.10695312 43.94515625 -0.08890625 44.8828125 -0.0703125 C45.58148437 -0.04710937 46.28015625 -0.02390625 47 0 C46.44925003 4.45954493 44.76697081 7.17780195 42.21875 10.83984375 C32.31524998 25.55207212 26.18038771 36.61628825 28 55 C24.7 55 21.4 55 18 55 C18.03222656 53.58589844 18.06445312 52.17179687 18.09765625 50.71484375 C18.12302217 38.1763577 16.71106756 29.82460487 9.24609375 19.71142578 C7.16696425 16.85588155 5.30853762 13.86908688 3.4375 10.875 C2.77621094 9.86179688 2.11492187 8.84859375 1.43359375 7.8046875 C-0.06142121 4.87983534 -0.32523983 3.22874444 0 0 Z " fill="#DEEFFC" transform="translate(1507,142)"/>
<path d="M0 0 C10.56 0 21.12 0 32 0 C32 2.31 32 4.62 32 7 C24.41 7 16.82 7 9 7 C9 11.95 9 16.9 9 22 C14.94 22 20.88 22 27 22 C27 24.31 27 26.62 27 29 C21.06 29 15.12 29 9 29 C9 33.95 9 38.9 9 44 C16.59 44 24.18 44 32 44 C32 46.31 32 48.62 32 51 C21.44 51 10.88 51 0 51 C0 34.17 0 17.34 0 0 Z " fill="#FFFFFF" transform="translate(609,45)"/>
<path d="M0 0 C13.53 0 27.06 0 41 0 C41 3.96 41 7.92 41 12 C36.05 12 31.1 12 26 12 C26 26.19 26 40.38 26 55 C22.7 55 19.4 55 16 55 C16 40.48 16 25.96 16 11 C10.72 11 5.44 11 0 11 C0 7.37 0 3.74 0 0 Z " fill="#F6EDFD" transform="translate(1465,142)"/>
<path d="M0 0 C18 0 18 0 24 4 C25.60030744 7.20061489 25.64316057 10.53788036 25 14 C22.5 16.5 22.5 16.5 20 18 C20.99 18.639375 21.98 19.27875 23 19.9375 C25.03188687 21.63154345 25.88887495 22.58195816 26.57421875 25.16015625 C26.78385119 29.49015043 26.40327894 31.46229474 23.75 35 C16.52308472 40.25593839 9.42835361 38 0 38 C0 25.46 0 12.92 0 0 Z " fill="#F8F8F9" transform="translate(752,298)"/>
<path d="M0 0 C4.03197438 2.26848658 5.68451769 4.83304665 7.3125 9.125 C8.33905665 16.31089655 7.71130352 21.25975008 3.625 27.3125 C-0.91479374 31.57715472 -5.67563264 31.6647344 -11.6484375 31.5859375 C-15.56428893 31.19323034 -17.53710937 30.01195694 -20.375 27.3125 C-24.31212417 22.02846493 -25.2945472 17.83904229 -24.375 11.3125 C-23.36432136 6.9121607 -22.13498735 4.05348766 -18.875 0.875 C-12.97876729 -2.81014545 -6.26969516 -2.87409316 0 0 Z " fill="#040130" transform="translate(619.375,154.6875)"/>
<path d="M0 0 C5.26704688 2.1033706 8.52683802 4.84696399 11 10 C11.80578221 15.80018007 11.8194633 21.20348431 9.375 26.5625 C4.8469773 31.2096812 1.67092287 33.267044 -4.875 33.6875 C-10.64388127 33.51508014 -13.52848927 31.81969072 -17.57421875 27.82421875 C-21.41110656 22.91510476 -20.52198941 15.88688058 -20 10 C-18.3125 6.4375 -18.3125 6.4375 -16 4 C-14.9790625 2.824375 -14.9790625 2.824375 -13.9375 1.625 C-9.36147269 -0.90641936 -5.10390431 -0.82804601 0 0 Z " fill="#050183" transform="translate(1331,153)"/>
<path d="M0 0 C13.2 0 26.4 0 40 0 C41 2 41 2 41 10 C35.72 10 30.44 10 25 10 C25 24.52 25 39.04 25 54 C21.7 54 18.4 54 15 54 C15 39.48 15 24.96 15 10 C10.05 10 5.1 10 0 10 C0 6.7 0 3.4 0 0 Z " fill="#E8F5FD" transform="translate(805,143)"/>
<path d="M0 0 C1.65 0 3.3 0 5 0 C5 12.87 5 25.74 5 39 C3.35 38.67 1.7 38.34 0 38 C0 37.34 0 36.68 0 36 C-0.66 36.495 -1.32 36.99 -2 37.5 C-5.79747692 39.39873846 -8.82924496 39.90998292 -13 39 C-16.53093208 36.29545628 -18.19608396 34.31702911 -19 30 C-19.73992858 23.43768261 -18.84579699 19.38411579 -15 14 C-11.877998 11.91866533 -11.06733011 11.7262178 -7.5 11.75 C-6.7265625 11.74484375 -5.953125 11.7396875 -5.15625 11.734375 C-3 12 -3 12 0 14 C0 9.38 0 4.76 0 0 Z " fill="#EFEFF1" transform="translate(643,297)"/>
<path d="M0 0 C3.8026029 2.0050088 5.61790841 3.42686262 8 7 C8.6318919 11.98196877 9.20011712 17.54176753 6.94921875 22.15234375 C4.49699683 25.11092418 2.40684935 26.86180707 -1.42578125 27.23828125 C-9.2046064 27.43827811 -9.2046064 27.43827811 -13.0625 25.3125 C-17.0203411 20.58862514 -17.39306311 16.38868598 -17.25 10.37109375 C-16.79412687 6.04742207 -15.09950364 3.93781193 -11.875 1.1875 C-7.83934715 -0.47940009 -4.30510495 -0.69730573 0 0 Z " fill="#F0F0F2" transform="translate(1016,251)"/>
<path d="M0 0 C3.3 0 6.6 0 10 0 C10 17.82 10 35.64 10 54 C6.7 54 3.4 54 0 54 C0 36.18 0 18.36 0 0 Z " fill="#F0F8FE" transform="translate(1042,143)"/>
<path d="M0 0 C2.97 0 5.94 0 9 0 C10 1 10 1 10.12025452 3.13233948 C10.1169236 4.54131752 10.1169236 4.54131752 10.11352539 5.97875977 C10.11344986 7.03978409 10.11337433 8.10080841 10.11329651 9.19398499 C10.10813522 10.348134 10.10297394 11.50228302 10.09765625 12.69140625 C10.0962413 13.86638168 10.09482635 15.04135712 10.09336853 16.25193787 C10.08774992 20.02215064 10.07519426 23.79230504 10.0625 27.5625 C10.0574874 30.11132727 10.05292408 32.66015547 10.04882812 35.20898438 C10.03777444 41.4726789 10.02049734 47.73632954 10 54 C6.7 54 3.4 54 0 54 C0 36.18 0 18.36 0 0 Z " fill="#F1F6FE" transform="translate(1408,143)"/>
<path d="M0 0 C3.3 0 6.6 0 10 0 C10 16.83 10 33.66 10 51 C6.7 51 3.4 51 0 51 C0 34.17 0 17.34 0 0 Z " fill="#F4F4F6" transform="translate(547,45)"/>
<path d="M0 0 C1.65 0 3.3 0 5 0 C5 5.61 5 11.22 5 17 C9.21240496 15.94689876 9.73057427 15.58634021 12.3125 12.4375 C12.91578125 11.72464844 13.5190625 11.01179687 14.140625 10.27734375 C15.37706197 8.76296822 16.59606571 7.23418514 17.796875 5.69140625 C22.30048598 0.10174749 22.30048598 0.10174749 26.4375 -0.5 C27.7059375 -0.2525 27.7059375 -0.2525 29 0 C24.68339698 6.00073223 19.97966692 11.54006063 15 17 C16.39049495 21.19391219 18.34372204 23.75012633 21.375 26.9375 C24.6578436 30.47408996 27.50473288 33.87738476 30 38 C27.35546875 38.359375 27.35546875 38.359375 24 38 C21.80907065 36.11443698 20.13315331 34.43987671 18.3125 32.25 C17.84005859 31.71117187 17.36761719 31.17234375 16.88085938 30.6171875 C14.93521947 28.37956517 13.10229736 26.15673323 11.48046875 23.671875 C9.80156356 21.43675189 9.80156356 21.43675189 5 21 C5 26.61 5 32.22 5 38 C3.35 38 1.7 38 0 38 C0 25.46 0 12.92 0 0 Z " fill="#F7F7F8" transform="translate(1067,240)"/>
<path d="M0 0 C1.65 0 3.3 0 5 0 C5.01981934 0.76143311 5.03963867 1.52286621 5.06005859 2.30737305 C5.15549922 5.76775472 5.26510212 9.22754855 5.375 12.6875 C5.4059375 13.88568359 5.436875 15.08386719 5.46875 16.31835938 C5.50742187 17.47529297 5.54609375 18.63222656 5.5859375 19.82421875 C5.6173584 20.88729248 5.6487793 21.95036621 5.68115234 23.0456543 C6.00680038 26.0630103 6.66084376 28.28577954 8 31 C11.16320147 33.3724011 14.14318026 33.32140164 18 33 C20.28497767 32.44123112 20.28497767 32.44123112 22 31 C23.86462312 27.22075598 24.29031805 24.01090604 24.4140625 19.82421875 C24.45273437 18.66728516 24.49140625 17.51035156 24.53125 16.31835938 C24.5621875 15.12017578 24.593125 13.92199219 24.625 12.6875 C24.66367187 11.46998047 24.70234375 10.25246094 24.7421875 8.99804688 C24.83628002 5.99884772 24.92192209 2.99965177 25 0 C26.65 0 28.3 0 30 0 C30.11647041 4.54144994 30.18734502 9.08251394 30.25 13.625 C30.28351562 14.91019531 30.31703125 16.19539063 30.3515625 17.51953125 C30.47290314 29.22890331 30.47290314 29.22890331 26 34 C25.34 34.78375 24.68 35.5675 24 36.375 C19.14607964 39.00420686 14.3793285 38.94636335 9 38 C4.09187744 35.45285364 1.73121953 32.18457559 0 27 C-0.22705078 23.95385742 -0.22705078 23.95385742 -0.1953125 20.60546875 C-0.18886719 19.40341797 -0.18242188 18.20136719 -0.17578125 16.96289062 C-0.15902344 15.71701172 -0.14226563 14.47113281 -0.125 13.1875 C-0.11597656 11.92228516 -0.10695313 10.65707031 -0.09765625 9.35351562 C-0.07412394 6.23548436 -0.04124545 3.11783903 0 0 Z " fill="#FAFAFA" transform="translate(738,240)"/>
<path d="M0 0 C3.51483623 2.05032114 5.70332836 4.10998507 7 8 C7.1875 10.6875 7.1875 10.6875 7 13 C6 14 6 14 4.23413086 14.11352539 C3.48526611 14.10828857 2.73640137 14.10305176 1.96484375 14.09765625 C1.15595703 14.09443359 0.34707031 14.09121094 -0.48632812 14.08789062 C-1.33646484 14.07951172 -2.18660156 14.07113281 -3.0625 14.0625 C-3.91650391 14.05798828 -4.77050781 14.05347656 -5.65039062 14.04882812 C-7.76695663 14.03700373 -9.88348685 14.01906769 -12 14 C-11.34 16.64 -10.68 19.28 -10 22 C-4.20858017 23.01603857 -0.5415502 22.96263236 5 21 C5 22.32 5 23.64 5 25 C0.33532396 28.10978403 -4.54151204 27.73025717 -10 27 C-13.51814485 24.46693571 -15.32724008 21.93675395 -17 18 C-17.7164344 12.95163669 -17.54701546 9.05630571 -15.1875 4.5 C-10.66528896 -0.66824119 -6.51159568 -0.85295662 0 0 Z " fill="#E8E8EC" transform="translate(597,251)"/>
<path d="M0 0 C3.0625 2.4375 3.0625 2.4375 5 5 C5.33 5.33 5.66 5.66 6 6 C6 8.64 6 11.28 6 14 C0.06 14 -5.88 14 -12 14 C-10.84448274 20.90475759 -10.84448274 20.90475759 -7 23 C-2.88867059 22.67370401 1.03378012 22.15681413 5 21 C5 22.32 5 23.64 5 25 C0.22495142 27.80885211 -4.6077583 27.64802905 -10 27 C-13.16244367 25.257429 -14.44334666 23.90124826 -16.3125 20.875 C-17.71232906 15.02116941 -17.99003197 9.91178587 -15.1875 4.5 C-10.7299244 -0.59437212 -6.45605234 -1.05026689 0 0 Z " fill="#EBEBEE" transform="translate(672,309)"/>
<path d="M0 0 C3.0625 2.4375 3.0625 2.4375 5 5 C5.33 5.33 5.66 5.66 6 6 C6 8.64 6 11.28 6 14 C0.06 14 -5.88 14 -12 14 C-10.84448274 20.90475759 -10.84448274 20.90475759 -7 23 C-2.88867059 22.67370401 1.03378012 22.15681413 5 21 C5 22.32 5 23.64 5 25 C0.22495142 27.80885211 -4.6077583 27.64802905 -10 27 C-13.16244367 25.257429 -14.44334666 23.90124826 -16.3125 20.875 C-17.71232906 15.02116941 -17.99003197 9.91178587 -15.1875 4.5 C-10.7299244 -0.59437212 -6.45605234 -1.05026689 0 0 Z " fill="#EBEBEC" transform="translate(866,251)"/>
<path d="M0 0 C2.87029869 1.79393668 4.49131638 2.98263276 6 6 C6.08400529 7.59447464 6.10727467 9.19240545 6.09765625 10.7890625 C6.09443359 11.73007812 6.09121094 12.67109375 6.08789062 13.640625 C6.07951172 14.62546875 6.07113281 15.6103125 6.0625 16.625 C6.05798828 17.61757813 6.05347656 18.61015625 6.04882812 19.6328125 C6.03702145 22.0886016 6.020554 24.54427104 6 27 C4.68 27 3.36 27 2 27 C2 26.01 2 25.02 2 24 C1.360625 24.495 0.72125 24.99 0.0625 25.5 C-3.909834 27.44563298 -7.63671353 27.83343674 -12 27 C-14.80092943 24.89616287 -14.97373388 24.18057955 -15.5 20.5625 C-15 17 -15 17 -12.6875 14.625 C-9.25220009 12.54784192 -6.75584844 11.87285494 -2.8125 11.9375 C-0.9253125 11.9684375 -0.9253125 11.9684375 1 12 C0.34 9.69 -0.32 7.38 -1 5 C-5.16138263 4.91840426 -8.9472484 5.01751476 -13 6 C-13 4.68 -13 3.36 -13 2 C-8.69321224 -0.44148966 -4.86389189 -0.72828328 0 0 Z " fill="#ECECF2" transform="translate(1194,251)"/>
<path d="M0 0 C3.49890004 2.11391877 4.70578686 3.11736059 6 7 C6.08106686 8.55421729 6.10756898 10.11167027 6.09765625 11.66796875 C6.09443359 12.56064453 6.09121094 13.45332031 6.08789062 14.37304688 C6.07951172 15.30181641 6.07113281 16.23058594 6.0625 17.1875 C6.05798828 18.12787109 6.05347656 19.06824219 6.04882812 20.03710938 C6.03704626 22.35813712 6.02059558 24.67903644 6 27 C4.68 27 3.36 27 2 27 C2 26.01 2 25.02 2 24 C1.360625 24.495 0.72125 24.99 0.0625 25.5 C-3.909834 27.44563298 -7.63671353 27.83343674 -12 27 C-14.80092943 24.89616287 -14.97373388 24.18057955 -15.5 20.5625 C-15 17 -15 17 -12.6875 14.625 C-9.25220009 12.54784192 -6.75584844 11.87285494 -2.8125 11.9375 C-0.9253125 11.9684375 -0.9253125 11.9684375 1 12 C0.34 9.69 -0.32 7.38 -1 5 C-5.16138263 4.91840426 -8.9472484 5.01751476 -13 6 C-13.33 5.01 -13.66 4.02 -14 3 C-9.57754724 -0.42383439 -5.3979842 -0.89966403 0 0 Z " fill="#EDEDEF" transform="translate(820,309)"/>
<path d="M0 0 C0.84304688 -0.03996094 1.68609375 -0.07992187 2.5546875 -0.12109375 C6.53467049 0.74385696 7.80760487 2.08695002 10.125 5.4375 C10.72683286 9.2292716 10.5966423 12.92323974 10.4375 16.75 C10.41494141 17.77673828 10.39238281 18.80347656 10.36914062 19.86132812 C10.31037575 22.3882179 10.22827849 24.91210255 10.125 27.4375 C9.526875 27.2725 8.92875 27.1075 8.3125 26.9375 C5.51501729 26.29807538 3.72468785 26.13765607 1.125 27.4375 C-6.65091973 28.33755902 -6.65091973 28.33755902 -10 25.875 C-11.31157204 22.22133503 -11.06132865 20.12830023 -9.875 16.4375 C-4.82123745 12.41511757 -1.21230289 11.99277699 5.125 12.4375 C4.465 10.1275 3.805 7.8175 3.125 5.4375 C-1.03638263 5.35590426 -4.8222484 5.45501476 -8.875 6.4375 C-8.5625 4.5625 -8.5625 4.5625 -7.875 2.4375 C-4.72405867 0.33687245 -3.6525634 0.09436714 0 0 Z " fill="#EDEDF4" transform="translate(1236.875,250.5625)"/>
<path d="M0 0 C2.87029869 1.79393668 4.49131638 2.98263276 6 6 C6.08400529 7.59447464 6.10727467 9.19240545 6.09765625 10.7890625 C6.09443359 11.73007812 6.09121094 12.67109375 6.08789062 13.640625 C6.07951172 14.62546875 6.07113281 15.6103125 6.0625 16.625 C6.05798828 17.61757813 6.05347656 18.61015625 6.04882812 19.6328125 C6.03702145 22.0886016 6.020554 24.54427104 6 27 C4.68 27 3.36 27 2 27 C2 26.01 2 25.02 2 24 C1.360625 24.495 0.72125 24.99 0.0625 25.5 C-3.909834 27.44563298 -7.63671353 27.83343674 -12 27 C-14.80092943 24.89616287 -14.97373388 24.18057955 -15.5 20.5625 C-15 17 -15 17 -13.1875 14.625 C-8.59305526 12.28273405 -4.09708998 12.17853205 1 12 C0.34 9.69 -0.32 7.38 -1 5 C-5.16138263 4.91840426 -8.9472484 5.01751476 -13 6 C-13.33 5.01 -13.66 4.02 -14 3 C-9.58300711 -0.4196074 -5.3930732 -0.90861559 0 0 Z " fill="#F0F0F2" transform="translate(695,251)"/>
<path d="M0 0 C0.84304688 -0.03996094 1.68609375 -0.07992187 2.5546875 -0.12109375 C6.53467049 0.74385696 7.80760487 2.08695002 10.125 5.4375 C10.72683286 9.2292716 10.5966423 12.92323974 10.4375 16.75 C10.41494141 17.77673828 10.39238281 18.80347656 10.36914062 19.86132812 C10.31037575 22.3882179 10.22827849 24.91210255 10.125 27.4375 C9.526875 27.2725 8.92875 27.1075 8.3125 26.9375 C5.51501729 26.29807538 3.72468785 26.13765607 1.125 27.4375 C-6.65091973 28.33755902 -6.65091973 28.33755902 -10 25.875 C-11.27941834 22.31090605 -10.92573826 20.04941275 -9.875 16.4375 C-5.82773344 12.52079043 -0.23155137 12.73913105 5.125 12.4375 C4.465 10.1275 3.805 7.8175 3.125 5.4375 C-1.03638263 5.35590426 -4.8222484 5.45501476 -8.875 6.4375 C-8.5625 4.5625 -8.5625 4.5625 -7.875 2.4375 C-4.72405867 0.33687245 -3.6525634 0.09436714 0 0 Z " fill="#EFEFF3" transform="translate(1110.875,250.5625)"/>
<path d="M0 0 C2.73046875 1.8203125 2.73046875 1.8203125 5 5 C5.60835538 8.79043563 5.4716222 12.48622314 5.3125 16.3125 C5.28994141 17.33923828 5.26738281 18.36597656 5.24414062 19.42382812 C5.18537575 21.9507179 5.10327849 24.47460255 5 27 C4.401875 26.835 3.80375 26.67 3.1875 26.5 C0.39001729 25.86057538 -1.40031215 25.70015607 -4 27 C-7.0379777 27.35164448 -9.96564189 27.40013514 -13 27 C-15.48980167 24.96288954 -15.84934195 23.65285153 -16.5625 20.5625 C-15.69398438 16.60592884 -13.21429164 15.26891175 -10 13 C-7.24921116 12.08307039 -5.64051087 11.89113917 -2.8125 11.9375 C-0.9253125 11.9684375 -0.9253125 11.9684375 1 12 C0.03223902 8.20452079 0.03223902 8.20452079 -2 5 C-6.13300269 4.80776732 -9.94241601 5.22712686 -14 6 C-13.8125 4.125 -13.8125 4.125 -13 2 C-9.24861571 -0.27356624 -4.26789888 -1.15588928 0 0 Z " fill="#F1F1F7" transform="translate(1297,251)"/>
<path d="M0 0 C1.43472656 -0.02126953 1.43472656 -0.02126953 2.8984375 -0.04296875 C5.65510017 0.19004428 7.27447395 0.77829836 9.625 2.1875 C9.295 3.8375 8.965 5.4875 8.625 7.1875 C7.6040625 6.6925 7.6040625 6.6925 6.5625 6.1875 C3.08650705 5.00418325 0.27536451 4.98087559 -3.375 5.1875 C-4.365 5.6825 -4.365 5.6825 -5.375 6.1875 C-5.375 8.4975 -5.375 10.8075 -5.375 13.1875 C-4.56675781 13.47882813 -3.75851562 13.77015625 -2.92578125 14.0703125 C8.61191123 18.4961101 8.61191123 18.4961101 11.625 24.1875 C11.97629711 27.1130563 11.67269735 29.43517076 10.625 32.1875 C7.83157875 35.55393074 5.68081464 37.98259037 1.234375 38.42578125 C-5.02136324 38.58815697 -8.58663168 38.32879152 -13.375 34.1875 C-12.715 32.8675 -12.055 31.5475 -11.375 30.1875 C-10.55 30.6825 -9.725 31.1775 -8.875 31.6875 C-4.51641218 33.55546621 -2.07693771 33.64998568 2.625 33.1875 C4.73438785 32.16328739 4.73438785 32.16328739 5.625 30.1875 C6.29166667 27.6875 6.29166667 27.6875 5.625 25.1875 C3.37860182 23.37588856 1.04626498 22.36308855 -1.60546875 21.2578125 C-9.88014136 17.77516073 -9.88014136 17.77516073 -11.375 14.1875 C-11.90698011 9.399679 -12.10009014 7.32347455 -9.5 3.25 C-6.27383181 0.11871911 -4.40092665 0.02949683 0 0 Z " fill="#F1F1F4" transform="translate(556.375,297.8125)"/>
<path d="M0 0 C1.92578125 1.08984375 1.92578125 1.08984375 4.67578125 3.08984375 C3.68578125 4.57484375 3.68578125 4.57484375 2.67578125 6.08984375 C0.50703873 5.58380383 -1.32389502 5.09000562 -3.32421875 4.08984375 C-7.53648698 3.65951379 -11.23480979 3.66355329 -15.19921875 5.21484375 C-18.46082467 8.09273133 -20.03061279 10.88176607 -20.609375 15.234375 C-20.81887824 20.58126196 -20.01310718 24.45382922 -17.32421875 29.08984375 C-13.71181071 32.38350991 -10.17242357 32.53517268 -5.4765625 32.39453125 C-2.59078669 31.98601852 -0.65877948 30.7877061 1.67578125 29.08984375 C2.33578125 29.08984375 2.99578125 29.08984375 3.67578125 29.08984375 C4.00578125 30.40984375 4.33578125 31.72984375 4.67578125 33.08984375 C-1.276529 37.3225977 -6.0967439 37.94264314 -13.32421875 37.08984375 C-18.58904942 35.9856096 -21.45040664 33.2408173 -24.37890625 28.90625 C-27.33017128 23.23543083 -27.31757378 15.84814239 -25.7109375 9.76953125 C-23.76103579 5.25125681 -21.04397063 2.31381909 -16.734375 -0.0625 C-11.3489461 -1.95656495 -5.34161735 -2.0917594 0 0 Z " fill="#F5F5F7" transform="translate(570.32421875,240.91015625)"/>
<path d="M0 0 C1.32 0 2.64 0 4 0 C4 4.95 4 9.9 4 15 C5.65 14.01 7.3 13.02 9 12 C11.0625 11.53125 11.0625 11.53125 13 11.5 C13.639375 11.4690625 14.27875 11.438125 14.9375 11.40625 C18.53380637 12.44155032 19.8269688 13.95925238 22 17 C22.60841234 20.79041634 22.4716216 24.48623742 22.3125 28.3125 C22.28994141 29.33923828 22.26738281 30.36597656 22.24414062 31.42382812 C22.18537575 33.9507179 22.10327849 36.47460255 22 39 C20.35 39 18.7 39 17 39 C16.97494385 38.36908447 16.9498877 37.73816895 16.92407227 37.08813477 C16.80845863 34.24603175 16.68557684 31.40428917 16.5625 28.5625 C16.52318359 27.56927734 16.48386719 26.57605469 16.44335938 25.55273438 C16.40146484 24.60849609 16.35957031 23.66425781 16.31640625 22.69140625 C16.27974854 21.81685791 16.24309082 20.94230957 16.20532227 20.04125977 C16.21818934 18.0072598 16.21818934 18.0072598 15 17 C11.33655389 16.86431681 8.49384279 16.83538574 5 18 C5 24.93 5 31.86 5 39 C3.35 39 1.7 39 0 39 C0 26.13 0 13.26 0 0 Z " fill="#F0F0F2" transform="translate(891,297)"/>
<path d="M0 0 C1.65 0 3.3 0 5 0 C5 7.59 5 15.18 5 23 C10.28971308 18.47969129 10.28971308 18.47969129 15.1875 13.5625 C17.55703663 11.51979601 18.9589376 11.87557028 22 12 C21.06558465 13.27310312 20.12732889 14.543388 19.1875 15.8125 C18.66542969 16.52019531 18.14335938 17.22789062 17.60546875 17.95703125 C16.16871123 19.78531393 14.68184237 21.39896688 13 23 C14.39992224 27.09661456 16.35798375 29.93751459 19.125 33.25 C23 37.91103203 23 37.91103203 23 39 C20.29296875 39.37109375 20.29296875 39.37109375 17 39 C15.11549393 37.00729262 13.77064297 35.32815072 12.3125 33.0625 C9.51691575 28.54257273 9.51691575 28.54257273 5 26 C5 30.29 5 34.58 5 39 C3.35 39 1.7 39 0 39 C0 26.13 0 13.26 0 0 Z " fill="#F1F1F6" transform="translate(1255,239)"/>
<path d="M0 0 C2.475 0.495 2.475 0.495 5 1 C5.99 1 6.98 1 8 1 C8.33 0.67 8.66 0.34 9 0 C10.890625 -0.30859375 10.890625 -0.30859375 13.25 -0.4375 C14.01828125 -0.49808594 14.7865625 -0.55867187 15.578125 -0.62109375 C18.5806838 0.1489173 20.16530848 1.54300498 22.03173828 3.99682617 C23.9992317 8.06724561 23.50706649 12.456844 23.3125 16.875 C23.28994141 17.84953125 23.26738281 18.8240625 23.24414062 19.828125 C23.18550753 22.22035515 23.10351153 24.6093615 23 27 C21.35 27 19.7 27 18 27 C17.97494385 26.40461426 17.9498877 25.80922852 17.92407227 25.19580078 C17.80822506 22.50530864 17.68544804 19.8151766 17.5625 17.125 C17.52318359 16.18785156 17.48386719 15.25070312 17.44335938 14.28515625 C17.40146484 13.38925781 17.35957031 12.49335938 17.31640625 11.5703125 C17.27974854 10.74289551 17.24309082 9.91547852 17.20532227 9.06298828 C17.11761673 6.93820571 17.11761673 6.93820571 16 5 C10.67829506 4.70437633 10.67829506 4.70437633 6 7 C5.49297483 9.12106795 5.49297483 9.12106795 5.48828125 11.5703125 C5.45283203 12.46621094 5.41738281 13.36210937 5.38085938 14.28515625 C5.35830078 15.22230469 5.33574219 16.15945313 5.3125 17.125 C5.27833984 18.06988281 5.24417969 19.01476562 5.20898438 19.98828125 C5.12635888 22.32540253 5.05726012 24.66214191 5 27 C3.35 27 1.7 27 0 27 C0 18.09 0 9.18 0 0 Z " fill="#F2F2F4" transform="translate(610,251)"/>
<path d="M0 0 C2.475 0.495 2.475 0.495 5 1 C5.99 1 6.98 1 8 1 C8.33 0.67 8.66 0.34 9 0 C16.04810127 -0.58734177 16.04810127 -0.58734177 19.9375 1.8125 C22.92437838 4.98040132 23.12427048 7.48953471 23.09765625 11.66796875 C23.09443359 12.56064453 23.09121094 13.45332031 23.08789062 14.37304688 C23.07951172 15.30181641 23.07113281 16.23058594 23.0625 17.1875 C23.05798828 18.12787109 23.05347656 19.06824219 23.04882812 20.03710938 C23.03704626 22.35813712 23.02059558 24.67903644 23 27 C21.35 27 19.7 27 18 27 C17.67 19.74 17.34 12.48 17 5 C14.03 5 11.06 5 8 5 C5.56085508 7.43914492 5.71337477 8.21446431 5.5859375 11.5703125 C5.54726563 12.46621094 5.50859375 13.36210937 5.46875 14.28515625 C5.4378125 15.22230469 5.406875 16.15945313 5.375 17.125 C5.33632813 18.06988281 5.29765625 19.01476562 5.2578125 19.98828125 C5.16338654 22.32532375 5.07781606 24.66235501 5 27 C3.35 27 1.7 27 0 27 C0 18.09 0 9.18 0 0 Z " fill="#EFEFF1" transform="translate(685,309)"/>
<path d="M0 0 C2.475 0.495 2.475 0.495 5 1 C5.99 1 6.98 1 8 1 C8.33 0.67 8.66 0.34 9 0 C16.04810127 -0.58734177 16.04810127 -0.58734177 19.9375 1.8125 C22.92437838 4.98040132 23.12427048 7.48953471 23.09765625 11.66796875 C23.09443359 12.56064453 23.09121094 13.45332031 23.08789062 14.37304688 C23.07951172 15.30181641 23.07113281 16.23058594 23.0625 17.1875 C23.05798828 18.12787109 23.05347656 19.06824219 23.04882812 20.03710938 C23.03704626 22.35813712 23.02059558 24.67903644 23 27 C21.35 27 19.7 27 18 27 C17.67 19.74 17.34 12.48 17 5 C14.03 5 11.06 5 8 5 C5.56085508 7.43914492 5.71337477 8.21446431 5.5859375 11.5703125 C5.54726563 12.46621094 5.50859375 13.36210937 5.46875 14.28515625 C5.4378125 15.22230469 5.406875 16.15945313 5.375 17.125 C5.33632813 18.06988281 5.29765625 19.01476562 5.2578125 19.98828125 C5.16338654 22.32532375 5.07781606 24.66235501 5 27 C3.35 27 1.7 27 0 27 C0 18.09 0 9.18 0 0 Z " fill="#EFEFEF" transform="translate(777,251)"/>
<path d="M0 0 C1.32 0.33 2.64 0.66 4 1 C4 1.66 4 2.32 4 3 C4.66 2.505 5.32 2.01 6 1.5 C9.65620281 -0.3281014 12.99909205 -1.15177653 17 0 C19.73046875 1.82421875 19.73046875 1.82421875 22 5 C22.60841234 8.79041634 22.4716216 12.48623742 22.3125 16.3125 C22.28994141 17.33923828 22.26738281 18.36597656 22.24414062 19.42382812 C22.18537575 21.9507179 22.10327849 24.47460255 22 27 C20.35 27 18.7 27 17 27 C16.97494385 26.36908447 16.9498877 25.73816895 16.92407227 25.08813477 C16.80845863 22.24603175 16.68557684 19.40428917 16.5625 16.5625 C16.52318359 15.56927734 16.48386719 14.57605469 16.44335938 13.55273438 C16.40146484 12.60849609 16.35957031 11.66425781 16.31640625 10.69140625 C16.27974854 9.81685791 16.24309082 8.94230957 16.20532227 8.04125977 C16.21818934 6.0072598 16.21818934 6.0072598 15 5 C11.33655389 4.86431681 8.49384279 4.83538574 5 6 C5 12.93 5 19.86 5 27 C3.35 27 1.7 27 0 27 C0 18.09 0 9.18 0 0 Z " fill="#EDEDF2" transform="translate(1150,251)"/>
<path d="M0 0 C1.32 0.33 2.64 0.66 4 1 C4.33 1.66 4.66 2.32 5 3 C5.495 2.505 5.99 2.01 6.5 1.5 C9.32818956 -0.19691373 11.63377489 -0.43779443 14.90234375 -0.59375 C18.52382975 0.43132611 19.81669989 1.93961553 22 5 C22.60805015 8.79049109 22.47162272 12.48621055 22.3125 16.3125 C22.28994141 17.33923828 22.26738281 18.36597656 22.24414062 19.42382812 C22.18537575 21.9507179 22.10327849 24.47460255 22 27 C20.35 27 18.7 27 17 27 C16.97494385 26.36908447 16.9498877 25.73816895 16.92407227 25.08813477 C16.80845863 22.24603175 16.68557684 19.40428917 16.5625 16.5625 C16.52318359 15.56927734 16.48386719 14.57605469 16.44335938 13.55273438 C16.40146484 12.60849609 16.35957031 11.66425781 16.31640625 10.69140625 C16.27974854 9.81685791 16.24309082 8.94230957 16.20532227 8.04125977 C16.21818934 6.0072598 16.21818934 6.0072598 15 5 C11.33655389 4.86431681 8.49384279 4.83538574 5 6 C5 12.93 5 19.86 5 27 C3.35 27 1.7 27 0 27 C0 18.09 0 9.18 0 0 Z " fill="#EDEDEF" transform="translate(834,309)"/>
<path d="M0 0 C2.265625 0 2.265625 0 5 1 C6.67279407 3.48901827 7.68049442 6.20873431 8.75 9 C10.35002668 13.85077743 10.35002668 13.85077743 13 18 C13.44730469 16.78441406 13.89460937 15.56882812 14.35546875 14.31640625 C14.96509893 12.73136778 15.57583365 11.14675383 16.1875 9.5625 C16.47947266 8.76005859 16.77144531 7.95761719 17.07226562 7.13085938 C17.92556091 4.95633268 18.74363455 2.97035295 20 1 C22.73828125 -0.03515625 22.73828125 -0.03515625 25 0 C24.32414236 4.25891186 22.89545137 8.06157001 21.234375 12.015625 C20.95909973 12.67205994 20.68382446 13.32849487 20.40020752 14.00482178 C19.81805086 15.38432728 19.23293169 16.76258594 18.64501953 18.13964844 C18.04684614 19.55007146 17.45734937 20.96420494 16.87646484 22.38183594 C16.0352199 24.43483461 15.16928959 26.47570978 14.296875 28.515625 C14.04145935 29.15099182 13.7860437 29.78635864 13.52288818 30.440979 C12.74511719 32.21191406 12.74511719 32.21191406 11 35 C8.29394531 35.90527344 8.29394531 35.90527344 6 36 C6.34224609 35.12988281 6.34224609 35.12988281 6.69140625 34.2421875 C6.97886719 33.46101563 7.26632812 32.67984375 7.5625 31.875 C7.85253906 31.10929687 8.14257812 30.34359375 8.44140625 29.5546875 C9.85786281 23.07662745 6.62320299 17.53179496 3.9375 11.8125 C3.19150684 10.21722231 2.45039342 8.61965105 1.71484375 7.01953125 C1.38605225 6.31932861 1.05726074 5.61912598 0.71850586 4.89770508 C0 3 0 3 0 0 Z " fill="#EFEFF2" transform="translate(955,251)"/>
<path d="M0 0 C1.32 0 2.64 0 4 0 C4.01458252 0.59014893 4.02916504 1.18029785 4.04418945 1.78833008 C4.11868844 4.46371229 4.21533995 7.13784892 4.3125 9.8125 C4.33505859 10.74126953 4.35761719 11.67003906 4.38085938 12.62695312 C4.41630859 13.51962891 4.45175781 14.41230469 4.48828125 15.33203125 C4.51446533 16.15421143 4.54064941 16.9763916 4.56762695 17.82348633 C5.09317328 20.46902304 5.86753181 21.38806816 8 23 C11.74849077 23.46856135 12.76746204 23.15502531 16 21 C16.50776044 18.78067723 16.50776044 18.78067723 16.51171875 16.2109375 C16.54716797 15.26992188 16.58261719 14.32890625 16.61914062 13.359375 C16.64169922 12.37453125 16.66425781 11.3896875 16.6875 10.375 C16.72166016 9.38242187 16.75582031 8.38984375 16.79101562 7.3671875 C16.87365657 4.91157094 16.94275127 2.45631859 17 0 C18.65 0 20.3 0 22 0 C22 8.91 22 17.82 22 27 C20.68 27 19.36 27 18 27 C18 26.01 18 25.02 18 24 C17.360625 24.495 16.72125 24.99 16.0625 25.5 C12.13689929 27.4227432 8.2842227 28.1649407 4 27 C1.25937376 24.78951217 0.13174372 23.04181412 -0.31274414 19.52685547 C-0.39418061 16.57012447 -0.34834827 13.64362192 -0.25 10.6875 C-0.23195313 9.66076172 -0.21390625 8.63402344 -0.1953125 7.57617188 C-0.14831063 5.04982115 -0.08262272 2.52539531 0 0 Z " fill="#F4F4F6" transform="translate(595,309)"/>
<path d="M0 0 C3.5 0.5625 3.5 0.5625 5.9375 1.875 C8.41786802 6.141233 8.28568464 10.74929678 7.5 15.5625 C5.7161029 18.58219828 4.98883021 19.3924721 1.625 20.5625 C-1.5 20.5625 -1.5 20.5625 -4.3125 18.75 C-7.21430862 15.84819138 -7.68485895 14.24718039 -7.8125 10.25 C-7.75901331 6.93382542 -7.48974063 5.54239163 -5.9375 2.5 C-3.5 0.5625 -3.5 0.5625 0 0 Z " fill="#040435" transform="translate(1011.5,254.4375)"/>
<path d="M0 0 C5 1 5 1 6.58203125 3.28515625 C6.98808594 4.20167969 7.39414062 5.11820312 7.8125 6.0625 C8.23144531 6.98160156 8.65039062 7.90070313 9.08203125 8.84765625 C9.38496094 9.55792969 9.68789063 10.26820313 10 11 C11.96955252 8.50633687 13.49754584 6.19655316 14.6875 3.25 C15.120625 2.1775 15.55375 1.105 16 0 C17.65 0 19.3 0 21 0 C21 6.93 21 13.86 21 21 C20.01 21 19.02 21 18 21 C18 16.71 18 12.42 18 8 C17.34 8 16.68 8 16 8 C15.79503906 8.62648438 15.59007812 9.25296875 15.37890625 9.8984375 C15.10949219 10.71570313 14.84007812 11.53296875 14.5625 12.375 C14.29566406 13.18710937 14.02882813 13.99921875 13.75390625 14.8359375 C13 17 13 17 12 19 C11.01 19 10.02 19 9 19 C8.34 16.69 7.68 14.38 7 12 C6.34 12 5.68 12 5 12 C4.67 11.01 4.34 10.02 4 9 C3.67 12.96 3.34 16.92 3 21 C2.01 21 1.02 21 0 21 C0 14.07 0 7.14 0 0 Z " fill="#CA8429" transform="translate(420,321)"/>
<path d="M0 0 C2.86336371 2.86336371 2.30016187 4.95228346 2.3125 8.9375 C2.32925781 10.18402344 2.34601562 11.43054688 2.36328125 12.71484375 C2 16 2 16 0.73046875 17.9140625 C-1.32963402 19.20685837 -2.57653988 19.43291011 -5 19.4375 C-5.680625 19.45683594 -6.36125 19.47617187 -7.0625 19.49609375 C-9 19 -9 19 -10.72265625 17.28125 C-12.93764479 13.32542949 -12.61839412 9.39983863 -12 5 C-9.18359839 -0.86750336 -5.92687518 -0.66916333 0 0 Z " fill="#05052F" transform="translate(641,313)"/>
<path d="M0 0 C2.265625 -0.03125 2.265625 -0.03125 5 1 C6.68626071 3.65922376 7.68608539 6.54680206 8.75 9.5 C9.34737749 11.07351773 9.94625726 12.64646623 10.546875 14.21875 C10.80307617 14.91935547 11.05927734 15.61996094 11.32324219 16.34179688 C11.87799445 18.00715715 11.87799445 18.00715715 13 19 C13.1858667 18.45996338 13.3717334 17.91992676 13.56323242 17.36352539 C14.41692649 14.92188144 15.30164187 12.49264911 16.1875 10.0625 C16.47947266 9.21236328 16.77144531 8.36222656 17.07226562 7.48632812 C17.92076598 5.19628953 18.73714825 3.09129172 20 1 C22.73828125 -0.06640625 22.73828125 -0.06640625 25 0 C24.43343202 6.11893423 21.89348871 11.32363807 19.4375 16.875 C19.01275391 17.84953125 18.58800781 18.8240625 18.15039062 19.828125 C17.10624496 22.22144765 16.05597786 24.61188014 15 27 C13.35 27 11.7 27 10 27 C8.32468327 23.06612462 6.66124197 19.12733737 5 15.1875 C4.28457031 13.50817383 4.28457031 13.50817383 3.5546875 11.79492188 C3.10351562 10.72177734 2.65234375 9.64863281 2.1875 8.54296875 C1.76855469 7.55321045 1.34960938 6.56345215 0.91796875 5.54370117 C0 3 0 3 0 0 Z " fill="#EFEFF0" transform="translate(819,251)"/>
<path d="M0 0 C2.27367158 0 4.47271837 0.11449034 6.73046875 0.375 C6.73046875 1.365 6.73046875 2.355 6.73046875 3.375 C4.42046875 3.705 2.11046875 4.035 -0.26953125 4.375 C-0.59953125 7.015 -0.92953125 9.655 -1.26953125 12.375 C1.04046875 12.375 3.35046875 12.375 5.73046875 12.375 C5.73046875 13.365 5.73046875 14.355 5.73046875 15.375 C3.42046875 15.375 1.11046875 15.375 -1.26953125 15.375 C-1.26953125 22.965 -1.26953125 30.555 -1.26953125 38.375 C-2.91953125 38.375 -4.56953125 38.375 -6.26953125 38.375 C-6.26953125 30.785 -6.26953125 23.195 -6.26953125 15.375 C-7.58953125 15.375 -8.90953125 15.375 -10.26953125 15.375 C-10.26953125 14.385 -10.26953125 13.395 -10.26953125 12.375 C-8.94953125 12.375 -7.62953125 12.375 -6.26953125 12.375 C-6.35203125 11.50875 -6.43453125 10.6425 -6.51953125 9.75 C-6.18056874 5.17400605 -5.09286623 0.8415063 0 0 Z " fill="#F3F3F6" transform="translate(1039.26953125,239.625)"/>
<path d="M0 0 C2.28125 1.01953125 2.28125 1.01953125 4 2 C3.67 2.99 3.34 3.98 3 5 C-0.3 4.67 -3.6 4.34 -7 4 C-7.33 5.65 -7.66 7.3 -8 9 C-7.31292969 9.24234375 -6.62585938 9.4846875 -5.91796875 9.734375 C-5.01691406 10.06953125 -4.11585938 10.4046875 -3.1875 10.75 C-2.29417969 11.07484375 -1.40085937 11.3996875 -0.48046875 11.734375 C2.28950728 13.1477171 3.46010601 14.31925432 5 17 C5 20.75127126 4.43786161 22.46326642 2.0625 25.375 C-2.22234853 27.6485931 -6.23158693 27.69505682 -11 27 C-11.99 26.34 -12.98 25.68 -14 25 C-14 24.01 -14 23.02 -14 22 C-13.319375 22.165 -12.63875 22.33 -11.9375 22.5 C-8.5835178 23.07089059 -5.39610195 23.06659023 -2 23 C-1.67 21.35 -1.34 19.7 -1 18 C-1.77085937 17.67386719 -2.54171875 17.34773438 -3.3359375 17.01171875 C-4.33882812 16.57472656 -5.34171875 16.13773437 -6.375 15.6875 C-7.37273438 15.25824219 -8.37046875 14.82898438 -9.3984375 14.38671875 C-12 13 -12 13 -14 10 C-13.87184876 6.41176525 -13.73131073 3.94460969 -11.5 1.0625 C-7.73786428 -0.53640768 -4.02938153 -0.54623658 0 0 Z " fill="#F0F0F2" transform="translate(912,251)"/>
<path d="M0 0 C0.99 0 1.98 0 3 0 C3 3.3 3 6.6 3 10 C5.31 10 7.62 10 10 10 C10 10.99 10 11.98 10 13 C7.69 13 5.38 13 3 13 C3 19.27 3 25.54 3 32 C5.31 32 7.62 32 10 32 C10 32.99 10 33.98 10 35 C8.12735324 36.87264676 5.50240053 36.23607378 3.0078125 36.328125 C0.37122257 35.8972426 -0.36057024 35.08484889 -2 33 C-2.34057617 30.82348633 -2.34057617 30.82348633 -2.29296875 28.33203125 C-2.28330078 27.43935547 -2.27363281 26.54667969 -2.26367188 25.62695312 C-2.23853516 24.69818359 -2.21339844 23.76941406 -2.1875 22.8125 C-2.16719727 21.40194336 -2.16719727 21.40194336 -2.14648438 19.96289062 C-2.11113096 17.64134962 -2.06178674 15.32096347 -2 13 C-3.32 13 -4.64 13 -6 13 C-6 12.01 -6 11.02 -6 10 C-4.68 10 -3.36 10 -2 10 C-1.93941406 9.36191406 -1.87882813 8.72382813 -1.81640625 8.06640625 C-1.73261719 7.24011719 -1.64882813 6.41382813 -1.5625 5.5625 C-1.48128906 4.73878906 -1.40007813 3.91507813 -1.31640625 3.06640625 C-1 1 -1 1 0 0 Z " fill="#EDEDF0" transform="translate(941,242)"/>
<path d="M0 0 C0.99 0 1.98 0 3 0 C3 3.3 3 6.6 3 10 C5.31 10 7.62 10 10 10 C10 10.99 10 11.98 10 13 C7.69 13 5.38 13 3 13 C3 19.27 3 25.54 3 32 C5.31 32 7.62 32 10 32 C10 32.99 10 33.98 10 35 C8.12735324 36.87264676 5.50240053 36.23607378 3.0078125 36.328125 C0.37122257 35.8972426 -0.36057024 35.08484889 -2 33 C-2.34057617 30.82348633 -2.34057617 30.82348633 -2.29296875 28.33203125 C-2.28330078 27.43935547 -2.27363281 26.54667969 -2.26367188 25.62695312 C-2.23853516 24.69818359 -2.21339844 23.76941406 -2.1875 22.8125 C-2.16719727 21.40194336 -2.16719727 21.40194336 -2.14648438 19.96289062 C-2.11113096 17.64134962 -2.06178674 15.32096347 -2 13 C-3.32 13 -4.64 13 -6 13 C-6 12.01 -6 11.02 -6 10 C-4.68 10 -3.36 10 -2 10 C-1.93941406 9.36191406 -1.87882813 8.72382813 -1.81640625 8.06640625 C-1.73261719 7.24011719 -1.64882813 6.41382813 -1.5625 5.5625 C-1.48128906 4.73878906 -1.40007813 3.91507813 -1.31640625 3.06640625 C-1 1 -1 1 0 0 Z " fill="#EDEDEF" transform="translate(645,242)"/>
<path d="M0 0 C1.32 0 2.64 0 4 0 C4 2.97 4 5.94 4 9 C6.64 9 9.28 9 12 9 C12 9.99 12 10.98 12 12 C9.36 12 6.72 12 4 12 C4.33 17.94 4.66 23.88 5 30 C6.98 30 8.96 30 11 30 C11.33 31.32 11.66 32.64 12 34 C8.89079391 35.55460305 5.36916972 35.72720693 2 35 C-0.22704583 33.19739116 -0.91998233 31.72875945 -1.23168945 28.88989258 C-1.2959059 26.33632951 -1.26104253 23.8032458 -1.1875 21.25 C-1.16719727 19.91775391 -1.16719727 19.91775391 -1.14648438 18.55859375 C-1.11121309 16.37177422 -1.06192752 14.18620034 -1 12 C-2.32 12 -3.64 12 -5 12 C-5 11.01 -5 10.02 -5 9 C-3.35 9 -1.7 9 0 9 C0 6.03 0 3.06 0 0 Z " fill="#F0F0F3" transform="translate(577,301)"/>
<path d="M0 0 C3 1 3 1 5 2 C5 2.99 5 3.98 5 5 C4.16855469 4.95359375 3.33710937 4.9071875 2.48046875 4.859375 C1.39378906 4.82328125 0.30710937 4.7871875 -0.8125 4.75 C-1.89144531 4.70359375 -2.97039063 4.6571875 -4.08203125 4.609375 C-7.06160291 4.72286214 -7.06160291 4.72286214 -8.87109375 6.734375 C-10.11755146 9.23591642 -10.34502395 10.72530071 -10.25 13.5 C-10.23453125 14.2528125 -10.2190625 15.005625 -10.203125 15.78125 C-10.00487199 17.94678285 -9.58899863 19.91000485 -9 22 C-7.41676312 22.027193 -5.83338938 22.04648306 -4.25 22.0625 C-3.36828125 22.07410156 -2.4865625 22.08570313 -1.578125 22.09765625 C0.7818838 22.00826198 2.74498524 21.66912821 5 21 C4.6875 22.875 4.6875 22.875 4 25 C-0.24740799 27.83160532 -4.01346043 27.64522317 -9 27 C-12.09431608 25.2594472 -13.46821456 23.86098594 -15.3125 20.875 C-16.52976041 15.78463828 -17.48636791 10.53047298 -14.7265625 5.83203125 C-10.25355295 0.54078824 -6.99047097 -0.57474236 0 0 Z " fill="#EDEDEF" transform="translate(879,309)"/>
<path d="M0 0 C1.8975 -0.061875 3.795 -0.12375 5.75 -0.1875 C7.35101562 -0.23970703 7.35101562 -0.23970703 8.984375 -0.29296875 C12.35426215 0.03441666 13.69119008 0.54792264 16 3 C16.69292993 5.70624604 16.48640192 8.25898213 16 11 C14.45661909 13.17476401 13.36334727 13.81832637 11 15 C7.32984725 15.1377685 3.67388652 15.04271961 0 15 C0 10.05 0 5.1 0 0 Z " fill="#030015" transform="translate(723,153)"/>
<path d="M0 0 C0.99 0 1.98 0 3 0 C3 2.97 3 5.94 3 9 C5.64 9 8.28 9 11 9 C11 9.99 11 10.98 11 12 C8.36 12 5.72 12 3 12 C3.33 17.94 3.66 23.88 4 30 C5.98 30 7.96 30 10 30 C10.33 31.32 10.66 32.64 11 34 C8.78704384 35.10647808 7.45327301 35.19588368 5 35.25 C4.29875 35.27578125 3.5975 35.3015625 2.875 35.328125 C2.25625 35.21984375 1.6375 35.1115625 1 35 C-1.13604308 31.79593538 -1.24208908 31.00399253 -1.1953125 27.33203125 C-1.18886719 26.43935547 -1.18242188 25.54667969 -1.17578125 24.62695312 C-1.15902344 23.69818359 -1.14226562 22.76941406 -1.125 21.8125 C-1.11597656 20.87212891 -1.10695313 19.93175781 -1.09765625 18.96289062 C-1.07409056 16.64167032 -1.04119116 14.32096356 -1 12 C-2.65 12 -4.3 12 -6 12 C-6 11.01 -6 10.02 -6 9 C-4.35 9 -2.7 9 -1 9 C-1.020625 7.88625 -1.04125 6.7725 -1.0625 5.625 C-1 2 -1 2 0 0 Z " fill="#F7F7FA" transform="translate(1211,243)"/>
<path d="M0 0 C0.99 0 1.98 0 3 0 C3 2.97 3 5.94 3 9 C5.64 9 8.28 9 11 9 C11 9.99 11 10.98 11 12 C8.36 12 5.72 12 3 12 C3.33 17.94 3.66 23.88 4 30 C5.98 30 7.96 30 10 30 C10.33 31.32 10.66 32.64 11 34 C7.95016004 35.52491998 5.3576631 35.23562548 2 35 C0.2956543 33.77612305 0.2956543 33.77612305 -1 32 C-1.34057617 29.82348633 -1.34057617 29.82348633 -1.29296875 27.33203125 C-1.28330078 26.43935547 -1.27363281 25.54667969 -1.26367188 24.62695312 C-1.23853516 23.69818359 -1.21339844 22.76941406 -1.1875 21.8125 C-1.17396484 20.87212891 -1.16042969 19.93175781 -1.14648438 18.96289062 C-1.11113096 16.64134962 -1.06178674 14.32096347 -1 12 C-2.65 12 -4.3 12 -6 12 C-6 11.01 -6 10.02 -6 9 C-4.35 9 -2.7 9 -1 9 C-1.020625 7.88625 -1.04125 6.7725 -1.0625 5.625 C-1 2 -1 2 0 0 Z " fill="#F8F8F9" transform="translate(719,301)"/>
<path d="M0 0 C9.9978099 -0.48182216 9.9978099 -0.48182216 14.25 1.5625 C16 4 16 4 16.1875 7.5625 C15 11 15 11 12.5 12.9375 C8.09393447 14.27505561 4.59286917 14.20876678 0 14 C0 9.38 0 4.76 0 0 Z " fill="#030222" transform="translate(903,153)"/>
<path d="M0 0 C1.65 0 3.3 0 5 0 C5 12.87 5 25.74 5 39 C3.35 39 1.7 39 0 39 C0 26.13 0 13.26 0 0 Z " fill="#F2F2F3" transform="translate(709,239)"/>
<path d="M0 0 C1.8975 -0.061875 3.795 -0.12375 5.75 -0.1875 C7.35101562 -0.23970703 7.35101562 -0.23970703 8.984375 -0.29296875 C12.34736757 0.03374685 13.67189647 0.58341748 16 3 C16.5625 6.5 16.5625 6.5 16 10 C13.59104787 12.57508676 11.68847006 12.9574541 8.21875 13.171875 C5.47860408 13.18599946 2.73839415 13.0989781 0 13 C0 8.71 0 4.42 0 0 Z " fill="#02021D" transform="translate(757,319)"/>
<path d="M0 0 C2.475 0.495 2.475 0.495 5 1 C5.33 1.66 5.66 2.32 6 3 C6.37125 2.505 6.7425 2.01 7.125 1.5 C9.74694393 -0.59755514 11.73842472 -0.21743835 15 0 C15 1.65 15 3.3 15 5 C13.88625 5.103125 12.7725 5.20625 11.625 5.3125 C10.42875 5.539375 9.2325 5.76625 8 6 C5.9859044 9.0211434 5.73163404 9.80660017 5.5859375 13.23046875 C5.54726562 14.03291016 5.50859375 14.83535156 5.46875 15.66210938 C5.4378125 16.49548828 5.406875 17.32886719 5.375 18.1875 C5.33632812 19.03248047 5.29765625 19.87746094 5.2578125 20.74804688 C5.16363721 22.83167524 5.08073325 24.91580753 5 27 C3.35 27 1.7 27 0 27 C0 18.09 0 9.18 0 0 Z " fill="#E6E6ED" transform="translate(1129,251)"/>
<path d="M0 0 C2.475 0.495 2.475 0.495 5 1 C5.33 1.66 5.66 2.32 6 3 C6.37125 2.505 6.7425 2.01 7.125 1.5 C9.74694393 -0.59755514 11.73842472 -0.21743835 15 0 C15 1.65 15 3.3 15 5 C13.88625 5.103125 12.7725 5.20625 11.625 5.3125 C10.42875 5.539375 9.2325 5.76625 8 6 C5.9859044 9.0211434 5.73163404 9.80660017 5.5859375 13.23046875 C5.54726563 14.03291016 5.50859375 14.83535156 5.46875 15.66210938 C5.4378125 16.49548828 5.406875 17.32886719 5.375 18.1875 C5.33632813 19.03248047 5.29765625 19.87746094 5.2578125 20.74804688 C5.16363721 22.83167524 5.08073325 24.91580753 5 27 C3.35 27 1.7 27 0 27 C0 18.09 0 9.18 0 0 Z " fill="#EDEDEE" transform="translate(879,251)"/>
<path d="M0 0 C2.475 0.495 2.475 0.495 5 1 C5.33 1.66 5.66 2.32 6 3 C6.37125 2.505 6.7425 2.01 7.125 1.5 C9.74694393 -0.59755514 11.73842472 -0.21743835 15 0 C15 1.65 15 3.3 15 5 C13.88625 5.103125 12.7725 5.20625 11.625 5.3125 C10.42875 5.539375 9.2325 5.76625 8 6 C5.9859044 9.0211434 5.73163404 9.80660017 5.5859375 13.23046875 C5.54726563 14.03291016 5.50859375 14.83535156 5.46875 15.66210938 C5.4378125 16.49548828 5.406875 17.32886719 5.375 18.1875 C5.33632813 19.03248047 5.29765625 19.87746094 5.2578125 20.74804688 C5.16363721 22.83167524 5.08073325 24.91580753 5 27 C3.35 27 1.7 27 0 27 C0 18.09 0 9.18 0 0 Z " fill="#EDEDEF" transform="translate(661,251)"/>
<path d="M0 0 C10.14938489 -0.48330404 10.14938489 -0.48330404 13.75 1.5625 C15.54963144 5.07178131 15.03774589 7.26411481 14 11 C9.43362969 14.04424687 5.43284541 13.12783166 0 13 C0 8.71 0 4.42 0 0 Z " fill="#06061D" transform="translate(757,302)"/>
<path d="M0 0 C1.32 0 2.64 0 4 0 C4.33 1.32 4.66 2.64 5 4 C5.53625 3.34 6.0725 2.68 6.625 2 C9 0 9 0 12.25 -0.25 C13.61125 -0.12625 13.61125 -0.12625 15 0 C15 1.32 15 2.64 15 4 C13.88625 4.28875 12.7725 4.5775 11.625 4.875 C7.99708908 5.69241329 7.99708908 5.69241329 6 8 C5.63105418 10.03060659 5.63105418 10.03060659 5.5859375 12.3515625 C5.52792969 13.62773437 5.52792969 13.62773437 5.46875 14.9296875 C5.4378125 15.81914062 5.406875 16.70859375 5.375 17.625 C5.31699219 18.97078125 5.31699219 18.97078125 5.2578125 20.34375 C5.16340643 22.5622927 5.07783252 24.78082403 5 27 C3.35 27 1.7 27 0 27 C0 18.09 0 9.18 0 0 Z " fill="#F4F4F5" transform="translate(786,309)"/>
<path d="M0 0 C4.95 0 9.9 0 15 0 C15 1.32 15 2.64 15 4 C13.35 4 11.7 4 10 4 C10 9.61 10 15.22 10 21 C8.35 21 6.7 21 5 21 C5 15.39 5 9.78 5 4 C3.35 4 1.7 4 0 4 C0 2.68 0 1.36 0 0 Z " fill="#A26A35" transform="translate(402,321)"/>
<path d="M0 0 C5 1 5 1 8 3 C7.51781006 3.84256348 7.51781006 3.84256348 7.02587891 4.70214844 C5.90241943 7.21856933 5.69140607 9.02344205 5.5859375 11.765625 C5.54726563 12.65507812 5.50859375 13.54453125 5.46875 14.4609375 C5.4378125 15.38132812 5.406875 16.30171875 5.375 17.25 C5.31699219 18.65378906 5.31699219 18.65378906 5.2578125 20.0859375 C5.16375156 22.39043054 5.07810601 24.69492013 5 27 C3.35 27 1.7 27 0 27 C0 18.09 0 9.18 0 0 Z " fill="#E5E5E9" transform="translate(610,251)"/>
<path d="M0 0 C1.65 0 3.3 0 5 0 C5 8.91 5 17.82 5 27 C3.35 27 1.7 27 0 27 C0 18.09 0 9.18 0 0 Z " fill="#F1F1F1" transform="translate(808,251)"/>
<path d="M0 0 C13.53 0 27.06 0 41 0 C41 0.99 41 1.98 41 3 C27.47 3 13.94 3 0 3 C0 2.01 0 1.02 0 0 Z " fill="#2FD6F0" transform="translate(1465,142)"/>
<path d="M0 0 C1.32 0 2.64 0 4 0 C4 8.91 4 17.82 4 27 C2.68 27 1.36 27 0 27 C0 18.09 0 9.18 0 0 Z " fill="#FDFDFD" transform="translate(924,251)"/>
<path d="M0 0 C3.15906355 2.20280647 5.61902354 4.62738601 8.16796875 7.51171875 C7.83796875 8.17171875 7.50796875 8.83171875 7.16796875 9.51171875 C6.67167969 9.04121094 6.17539063 8.57070312 5.6640625 8.0859375 C-1.66157501 1.37192817 -7.49910127 -1.14140176 -17.53515625 -0.91015625 C-23.74733002 -0.11523354 -28.50323679 2.64868318 -33.33203125 6.51171875 C-35.00585892 8.74348897 -35.95215817 10.8720995 -36.83203125 13.51171875 C-37.49203125 13.51171875 -38.15203125 13.51171875 -38.83203125 13.51171875 C-37.36160906 6.81312877 -33.39430852 2.87962626 -27.828125 -0.8203125 C-18.81883441 -5.51576229 -8.72582467 -4.96788387 0 0 Z " fill="#17E8F3" transform="translate(1340.83203125,145.48828125)"/>
<path d="M0 0 C0.48192771 5.42168675 0.48192771 5.42168675 -1.5625 7.875 C-4.8305952 9.38335163 -7.44519888 9.26828688 -11 9 C-12 8 -12 8 -12.375 5.625 C-12 3 -12 3 -9.9375 1.1875 C-6.4483377 -0.22301242 -3.7303242 -0.21943084 0 0 Z " fill="#151575" transform="translate(1298,266)"/>
<path d="M0 0 C2.63995097 0.07186799 3.79303107 0.14408192 6.0625 1.5625 C7.0625 3.3125 7.0625 3.3125 7.0625 7.3125 C2.4425 7.3125 -2.1775 7.3125 -6.9375 7.3125 C-5.56330645 0.44153226 -5.56330645 0.44153226 0 0 Z " fill="#131334" transform="translate(666.9375,312.6875)"/>
<path d="M0 0 C0.35789474 5.36842105 0.35789474 5.36842105 -1.0625 7.875 C-4.06732099 9.61973477 -6.60810131 9.30835443 -10 9 C-10.66 8.34 -11.32 7.68 -12 7 C-11.9375 5.0625 -11.9375 5.0625 -11 3 C-7.33874929 0.07099943 -4.6175429 -0.32215416 0 0 Z " fill="#101028" transform="translate(696,266)"/>
<path d="M0 0 C2.63995097 0.07186799 3.79303107 0.14408192 6.0625 1.5625 C7.0625 3.3125 7.0625 3.3125 7.0625 7.3125 C2.4425 7.3125 -2.1775 7.3125 -6.9375 7.3125 C-5.56330645 0.44153226 -5.56330645 0.44153226 0 0 Z " fill="#131324" transform="translate(860.9375,254.6875)"/>
<path d="M0 0 C2 2 2 2 2 7 C-2.62 7 -7.24 7 -12 7 C-11.67 5.35 -11.34 3.7 -11 2 C-6.93150591 -0.71232939 -4.83523216 -0.30699887 0 0 Z " fill="#14143B" transform="translate(597,255)"/>
<path d="M0 0 C0.25 2.8125 0.25 2.8125 0 6 C-2.28506757 8.63661642 -3.64947662 8.96494766 -7.125 9.3125 C-10 9 -10 9 -12 7 C-11.625 4.375 -11.625 4.375 -11 2 C-3.375 0 -3.375 0 0 0 Z " fill="#090924" transform="translate(821,324)"/>
<path d="M0 0 C0.35789474 5.36842105 0.35789474 5.36842105 -1.0625 7.875 C-4.03237177 9.59944167 -6.64658015 9.24840147 -10 9 C-11 8 -11 8 -11.375 5.625 C-11 3 -11 3 -8.875 1.1875 C-5.6892698 -0.12834508 -3.41335136 -0.23814079 0 0 Z " fill="#0E0E66" transform="translate(1242,266)"/>
<path d="M0 0 C0.25 2.8125 0.25 2.8125 0 6 C-2.28506757 8.63661642 -3.64947662 8.96494766 -7.125 9.3125 C-10 9 -10 9 -12 7 C-11.625 4.375 -11.625 4.375 -11 2 C-3.375 0 -3.375 0 0 0 Z " fill="#09095A" transform="translate(1195,266)"/>
<path d="M0 0 C0.35789474 5.36842105 0.35789474 5.36842105 -1.0625 7.875 C-4.03237177 9.59944167 -6.64658015 9.24840147 -10 9 C-11 8 -11 8 -11.375 5.625 C-11 3 -11 3 -8.875 1.1875 C-5.6892698 -0.12834508 -3.41335136 -0.23814079 0 0 Z " fill="#0E0E4E" transform="translate(1116,266)"/>
<path d="M0 0 C2.4375 1.6875 2.4375 1.6875 4 3 C3.67 3.66 3.34 4.32 3 5 C1.63875 4.0409375 1.63875 4.0409375 0.25 3.0625 C-5.73420375 -0.73516777 -12.04526813 -0.76989652 -19 0 C-24.65790523 1.9510018 -29.55090525 4.99581473 -34 9 C-32.02807312 3.67579744 -27.57515758 0.9135914 -22.875 -1.8125 C-15.39011321 -4.72328931 -6.88280206 -3.87157616 0 0 Z " fill="#06E1E7" transform="translate(576,145)"/>
<path d="M0 0 C0.556875 0.7425 1.11375 1.485 1.6875 2.25 C5.77025166 7.33525611 5.77025166 7.33525611 11.77734375 9.38671875 C18.01383531 9.61027654 22.17432374 9.3307351 27 5 C28.79394446 3.37648891 28.79394446 3.37648891 30 2 C30 3.32 30 4.64 30 6 C24.23233801 11.51132146 19.86794527 12.52764226 12.09375 12.48046875 C7.76235164 11.80778946 5.54245786 9.98134194 2.42578125 7.01953125 C0.77462563 4.6807711 0.36476917 2.81601796 0 0 Z " fill="#1BE4F1" transform="translate(1311,176)"/>
<path d="M0 0 C0.763125 0.495 1.52625 0.99 2.3125 1.5 C7.90409534 3.77454726 13.96261501 4.10490381 19.6953125 2.01953125 C20.45585938 1.68308594 21.21640625 1.34664062 22 1 C23.32676508 0.64141484 24.65835921 0.2981424 26 0 C27.32 1.65 28.64 3.3 30 5 C29.4225 4.649375 28.845 4.29875 28.25 3.9375 C25.5611807 2.81715862 24.68358428 2.9936559 22 4 C21.41992188 4.33773437 20.83984375 4.67546875 20.2421875 5.0234375 C15.41937646 7.12396496 8.77414912 7.08509154 3.8828125 5.171875 C2.25 4.125 2.25 4.125 0 2 C0 1.34 0 0.68 0 0 Z " fill="#10E4EE" transform="translate(1170,182)"/>
<path d="M0 0 C5.94 0 11.88 0 18 0 C17.67 1.32 17.34 2.64 17 4 C11.39 3.67 5.78 3.34 0 3 C0 2.01 0 1.02 0 0 Z " fill="#31D4EE" transform="translate(1439,164)"/>
<path d="M0 0 C7 0 7 0 8.9375 1.5 C9.288125 1.995 9.63875 2.49 10 3 C9.67 3.66 9.34 4.32 9 5 C8.67 4.67 8.34 4.34 8 4 C5.69 3.67 3.38 3.34 1 3 C1 8.94 1 14.88 1 21 C0.67 21 0.34 21 0 21 C0 14.07 0 7.14 0 0 Z " fill="#6BE2ED" transform="translate(1104,142)"/>
<path d="M0 0 C17.29805014 5.13927577 17.29805014 5.13927577 20.28515625 10.16015625 C20.52105469 10.76730469 20.75695312 11.37445313 21 12 C20.53851562 11.67386719 20.07703125 11.34773437 19.6015625 11.01171875 C14.92591124 7.87921721 10.68884263 6.12069416 5.19921875 4.87109375 C2.4811698 3.79449532 1.53919642 2.4358157 0 0 Z " fill="#15F1F3" transform="translate(964,160)"/>
<path d="M0 0 C1.67542976 0.28604898 3.34385343 0.61781233 5 1 C5 2.65 5 4.3 5 6 C3.34385343 6.38218767 1.67542976 6.71395102 0 7 C-1 6 -1 6 -1.125 3.5 C-1 1 -1 1 0 0 Z " fill="#E6E6E9" transform="translate(924,239)"/>
<path d="M0 0 C2.125 0.375 2.125 0.375 4 1 C4.625 2.875 4.625 2.875 5 5 C4.34 5.66 3.68 6.32 3 7 C0.875 6.625 0.875 6.625 -1 6 C-1.625 4.125 -1.625 4.125 -2 2 C-1.34 1.34 -0.68 0.68 0 0 Z " fill="#EAEAEB" transform="translate(809,239)"/>
<path d="M0 0 C0.99 0 1.98 0 3 0 C3 5.94 3 11.88 3 18 C2.67 18 2.34 18 2 18 C2 13.38 2 8.76 2 4 C1.01 4.99 0.02 5.98 -1 7 C-1.66 6.67 -2.32 6.34 -3 6 C-2.67 4.68 -2.34 3.36 -2 2 C-1.34 2 -0.68 2 0 2 C0 1.34 0 0.68 0 0 Z " fill="#F4A01F" transform="translate(437,323)"/>
<path d="M0 0 C-2.12508202 1.06990273 -4.25572301 2.12224807 -6.40234375 3.1484375 C-11.02081622 5.38295269 -15.15219229 7.53697306 -19 11 C-17.19923448 6.1379331 -13.22998402 3.51063434 -9.0625 0.6875 C-6.03049895 -0.32316702 -3.16607719 -0.1217722 0 0 Z " fill="#15F0F4" transform="translate(561,143)"/>
<path d="M0 0 C1.32 0.33 2.64 0.66 4 1 C4.33 2.65 4.66 4.3 5 6 C3.68 5.34 2.36 4.68 1 4 C1 8.62 1 13.24 1 18 C0.67 18 0.34 18 0 18 C0 12.06 0 6.12 0 0 Z " fill="#F39F1F" transform="translate(421,323)"/>
<path d="M0 0 C4.62 0 9.24 0 14 0 C14 0.33 14 0.66 14 1 C12.35 1.33 10.7 1.66 9 2 C8.67 7.28 8.34 12.56 8 18 C7.67 18 7.34 18 7 18 C6.67 12.72 6.34 7.44 6 2 C3.03 1.505 3.03 1.505 0 1 C0 0.67 0 0.34 0 0 Z " fill="#F6A11F" transform="translate(402,323)"/>
<path d="M0 0 C-0.33 0.99 -0.66 1.98 -1 3 C-4.14930893 4.04976964 -6.38814456 4.10131595 -9.6875 4.0625 C-10.68136719 4.05347656 -11.67523437 4.04445312 -12.69921875 4.03515625 C-13.83810547 4.01775391 -13.83810547 4.01775391 -15 4 C-15 3.34 -15 2.68 -15 2 C-14.22914063 1.93941406 -13.45828125 1.87882813 -12.6640625 1.81640625 C-11.15972656 1.69072266 -11.15972656 1.69072266 -9.625 1.5625 C-8.62726562 1.48128906 -7.62953125 1.40007812 -6.6015625 1.31640625 C-4.12756995 1.01551526 -2.44698344 0 0 0 Z " fill="#09D5D7" transform="translate(738,166)"/>
<path d="M0 0 C0.66 0.33 1.32 0.66 2 1 C-1.96 4.96 -5.92 8.92 -10 13 C-10.66 12.67 -11.32 12.34 -12 12 C-8.27653164 7.57905197 -4.70478962 3.42166518 0 0 Z " fill="#2C1C75" transform="translate(228,142)"/>
<path d="M0 0 C0.66 0.33 1.32 0.66 2 1 C-1.63 4.63 -5.26 8.26 -9 12 C-9 8.47601214 -8.44884893 7.98495633 -6.1875 5.4375 C-5.40439453 4.53837891 -5.40439453 4.53837891 -4.60546875 3.62109375 C-3 2 -3 2 0 0 Z " fill="#C37F32" transform="translate(265,147)"/>
<path d="M0 0 C3.3 0 6.6 0 10 0 C10 0.66 10 1.32 10 2 C7.02148438 2.34179688 7.02148438 2.34179688 4.04296875 2.68359375 C1.80603607 2.97170735 1.80603607 2.97170735 -1 4 C-0.67 2.68 -0.34 1.36 0 0 Z " fill="#54FCFC" transform="translate(691,143)"/>
<path d="M0 0 C0.66 0 1.32 0 2 0 C2 4.29 2 8.58 2 13 C1.67 13 1.34 13 1 13 C1 10.03 1 7.06 1 4 C0.34 4 -0.32 4 -1 4 C-0.67 2.68 -0.34 1.36 0 0 Z " fill="#4E3347" transform="translate(436,329)"/>
<path d="M0 0 C0.99 1.32 1.98 2.64 3 4 C2.67 4.66 2.34 5.32 2 6 C1.34 5.67 0.68 5.34 0 5 C-0.33 5.66 -0.66 6.32 -1 7 C-1.66 5.35 -2.32 3.7 -3 2 C-2.34 2 -1.68 2 -1 2 C-0.67 1.34 -0.34 0.68 0 0 Z " fill="#B3752F" transform="translate(426,326)"/>
</svg>
